<svg width="14" height="14" fill="none" xmlns="http://www.w3.org/2000/svg"><path d="M1.75 3.5h10.5" stroke="#FC9270" stroke-linecap="round" stroke-linejoin="round"/><path d="M11.585 3.5a.5.5 0 10-1 0h1zm-8.167 0a.5.5 0 00-1 0h1zm.75 0a.5.5 0 001 0h-1zm4.667 0a.5.5 0 101 0h-1zm1.75 0v8.167h1V3.5h-1zm0 8.167a.667.667 0 01-.667.666v1c.92 0 1.667-.746 1.667-1.666h-1zm-.667.666H4.085v1h5.833v-1zm-5.833 0a.667.667 0 01-.667-.666h-1c0 .92.746 1.666 1.667 1.666v-1zm-.667-.666V3.5h-1v8.167h1zM5.168 3.5V2.333h-1V3.5h1zm0-1.167c0-.368.298-.666.667-.666v-1c-.92 0-1.667.746-1.667 1.666h1zm.667-.666h2.333v-1H5.835v1zm2.333 0c.368 0 .667.298.667.666h1c0-.92-.747-1.666-1.667-1.666v1zm.667.666V3.5h1V2.333h-1z" fill="#FC9270"/><path d="M5.832 6.417v3.5m2.336-3.5v3.5" stroke="#FC9270" stroke-linecap="round" stroke-linejoin="round"/></svg>