<svg width="26" height="26" fill="none" xmlns="http://www.w3.org/2000/svg"><path d="M24.916 4.333v6.5h-6.5M1.083 21.667v-6.5h6.5" stroke="#7687EE" stroke-width="2" stroke-linecap="round" stroke-linejoin="round"/><path d="M2.86 9.416a1 1 0 001.885.668L2.86 9.416zM19.89 6.11l-.707.707.022.022.685-.729zm4.342 5.452a1 1 0 101.37-1.457l-1.37 1.457zM1.768 14.438a1 1 0 10-1.37 1.457l1.37-1.457zM6.11 19.89l.707-.707a1.078 1.078 0 00-.022-.022l-.685.73zm17.03-3.306a1 1 0 00-1.885-.668l1.885.668zm-18.395-6.5a8.75 8.75 0 016.318-5.616l-.442-1.95A10.75 10.75 0 002.86 9.416l1.885.668zm6.318-5.616a8.75 8.75 0 018.12 2.349l1.414-1.414a10.75 10.75 0 00-9.976-2.885l.442 1.95zm8.142 2.37l5.027 4.724 1.37-1.457-5.027-4.724-1.37 1.458zM.4 15.897l5.026 4.723 1.37-1.458-5.027-4.723-1.37 1.457zm5.004 4.701a10.75 10.75 0 009.976 2.886l-.442-1.951a8.75 8.75 0 01-8.12-2.349l-1.414 1.414zm9.976 2.886a10.75 10.75 0 007.761-6.9l-1.885-.666a8.75 8.75 0 01-6.318 5.615l.442 1.95z" fill="#7687EE"/></svg>