<svg width="26" height="26" fill="none" xmlns="http://www.w3.org/2000/svg"><path clip-rule="evenodd" d="M13 16.25a3.25 3.25 0 100-6.5 3.25 3.25 0 000 6.5z" stroke="#7687EE" stroke-width="2" stroke-linecap="round" stroke-linejoin="round"/><path clip-rule="evenodd" d="M21.017 16.25a1.788 1.788 0 00.357 1.972l.065.065a2.166 2.166 0 01-1.533 3.7 2.167 2.167 0 01-1.532-.635l-.066-.065a1.788 1.788 0 00-1.971-.357c-.655.28-1.08.923-1.083 1.636v.184a2.167 2.167 0 01-4.334 0v-.098a1.787 1.787 0 00-1.17-1.635 1.787 1.787 0 00-1.971.357l-.066.065a2.167 2.167 0 11-3.065-3.066l.065-.065a1.788 1.788 0 00.357-1.971 1.787 1.787 0 00-1.636-1.084H3.25a2.167 2.167 0 010-4.333h.098a1.787 1.787 0 001.636-1.17 1.788 1.788 0 00-.358-1.972l-.065-.065a2.167 2.167 0 113.066-3.066l.065.065a1.788 1.788 0 001.972.358h.086a1.787 1.787 0 001.084-1.636V3.25a2.167 2.167 0 114.333 0v.097a1.788 1.788 0 001.083 1.636c.669.295 1.45.154 1.972-.357l.065-.065a2.167 2.167 0 113.066 3.066l-.065.065a1.787 1.787 0 00-.358 1.971v.087c.28.655.924 1.08 1.636 1.083h.184a2.167 2.167 0 110 4.334h-.097a1.788 1.788 0 00-1.636 1.083z" stroke="#7687EE" stroke-width="2" stroke-linecap="round" stroke-linejoin="round"/></svg>