<svg width="799" height="700" fill="none" xmlns="http://www.w3.org/2000/svg"><g opacity=".1" clip-path="url(#clip0_2_3477)"><path fill-rule="evenodd" clip-rule="evenodd" d="M666.631 195.39a5.666 5.666 0 01-2.683-2.934c-1.814-4.311-1.251-9.256-.309-13.857.057-.42.219-.819.472-1.159 2.103-2.464 4.714-4.039 6.564-6.847a22.757 22.757 0 002.702-6.014c.507-1.721.217-5.434 1.16-6.756 2.756-3.931 5.114 4.166 5.349 6.05a22.924 22.924 0 01-.652 5.434c-.164 1.322-.472 2.626-.708 3.967.309.235.689.108 1.034.108h12.203c1.723 0 2.557.489 2.811 1.631a3.266 3.266 0 01-1.813 3.514c-.309.163-.871 0-.907.507-.036.507.544.435.816.616 1.487 1.014 1.215 3.097-.49 4.311-.399.29-1.196.145-1.215.761-.018.615.726.47 1.07.797a2.751 2.751 0 01.488 2.418 2.75 2.75 0 01-1.648 1.838 5.072 5.072 0 00-.726.272c-.199.145-.398.29 0 .561a2.39 2.39 0 010 4.293l-.525.381a3.396 3.396 0 01-2.14.471h-19.148a3.935 3.935 0 01-1.705-.363zm-13.908-8.713v-9.165c0-.616 0-.924.562-.924h7.525c.489 0 .562.253.562.887v18.458c0 .779-.145 1.015-.671.996h-7.253c-.598 0-.689-.307-.671-1.086.054-3.043-.054-6.105-.054-9.166zm-450.888-23.89a4.568 4.568 0 01-2.176-2.373c-1.505-3.478-1.016-7.481-.236-11.195.039-.339.164-.663.363-.941 1.704-1.993 3.808-3.261 5.313-5.543a18.146 18.146 0 002.176-4.855c.417-1.376.181-4.347.943-5.434 2.23-3.17 4.134 3.369 4.315 4.891a17.738 17.738 0 01-.526 4.365c-.127 1.069-.381 2.138-.58 3.206.272.2.562.091.852.091h9.864c1.379 0 2.068.38 2.249 1.304a2.646 2.646 0 01-1.414 2.862c-.254.109-.689 0-.726.399-.036.398.435.344.671.507 1.179.797.961 2.481-.399 3.459-.344.236-.979.127-.997.616-.018.489.598.381.87.652a2.23 2.23 0 01-.1 2.857c-.231.258-.52.458-.843.585a5.465 5.465 0 00-.58.217c-.163.109-.308.236 0 .453a1.94 1.94 0 01.791 2.763 1.942 1.942 0 01-.791.715l-.417.308a2.77 2.77 0 01-1.722.38h-15.468a3.213 3.213 0 01-1.432-.289zm-11.243-7.155v-7.408c0-.507 0-.761.436-.743h6.092c.399 0 .453.2.453.725v14.907c0 .634-.108.816-.544.797h-5.893c-.489 0-.562-.253-.562-.887.036-2.445.018-4.927.018-7.391zM440.479 518.41a5.438 5.438 0 01-2.647-2.88c-1.813-4.22-1.233-9.057-.29-13.585.045-.411.195-.804.435-1.141 2.085-2.428 4.642-3.967 6.455-6.739a22.034 22.034 0 002.648-5.887c.489-1.684.217-5.289 1.142-6.629 2.702-3.858 5.023 4.094 5.24 5.941a22.015 22.015 0 01-.634 5.307c-.164 1.305-.454 2.573-.708 3.895.327.235.689.109 1.034.109h11.968c1.686 0 2.52.47 2.756 1.594a3.19 3.19 0 01-1.723 3.459c-.308.145-.852 0-.888.489-.037.489.526.417.797.616 1.451.978 1.197 3.025-.471 4.221-.399.271-1.179.145-1.197.742-.018.598.726.453 1.052.779a2.706 2.706 0 01-.122 3.47 2.72 2.72 0 01-1.02.714 4.855 4.855 0 00-.708.272c-.199.127-.38.29 0 .562a2.35 2.35 0 011.294 2.101 2.357 2.357 0 01-1.294 2.101l-.525.362c-.63.387-1.37.552-2.104.471h-18.767a3.977 3.977 0 01-1.723-.344zm-13.672-8.569v-9.056c0-.616 0-.906.544-.906h7.38c.49 0 .562.235.562.869v18.114c0 .761-.145.978-.671.978h-7.162c-.58 0-.671-.29-.671-1.069.054-2.934.036-5.941.018-8.93z" fill="#D89CC7"/><path d="M493.246 52.602l6.328 8.857" stroke="#000" stroke-width=".5" stroke-miterlimit="10" stroke-linecap="round"/><path d="M505.16 69.3l73.365 102.832" stroke="#000" stroke-width=".5" stroke-miterlimit="10" stroke-linecap="round" stroke-dasharray="12.77 5.32"/><path d="M581.335 176.045l6.311 8.857-7.507 7.862" stroke="#000" stroke-width=".5" stroke-miterlimit="10" stroke-linecap="round"/><path d="M573.92 199.32L449.855 329.503" stroke="#000" stroke-width=".5" stroke-miterlimit="10" stroke-linecap="round" stroke-dasharray="11.97 4.99"/><path d="M446.753 332.781l-7.507 7.862m148.399-155.74l-10.862-.489" stroke="#000" stroke-width=".5" stroke-miterlimit="10" stroke-linecap="round"/><path d="M567.971 184.015l-169.105-7.553-198.227-84.99" stroke="#000" stroke-width=".5" stroke-miterlimit="10" stroke-linecap="round" stroke-dasharray="11.66 4.86"/><path d="M196.595 89.734l-10.009-4.293M33.49 279.672l10.463-2.988" stroke="#000" stroke-width=".5" stroke-miterlimit="10" stroke-linecap="round"/><path d="M53.057 274.112l335.491-95.278" stroke="#000" stroke-width=".5" stroke-miterlimit="10" stroke-linecap="round" stroke-dasharray="12.51 5.21"/><path d="M393.08 177.549l10.481-2.971 2.031 10.687" stroke="#000" stroke-width=".5" stroke-miterlimit="10" stroke-linecap="round"/><path d="M407.135 193.398l25.549 134.385" stroke="#000" stroke-width=".5" stroke-miterlimit="10" stroke-linecap="round" stroke-dasharray="10.98 4.58"/><path d="M433.463 331.857l2.031 10.669M327.006 490.299l5.077 9.618" stroke="#000" stroke-width=".5" stroke-miterlimit="10" stroke-linecap="round"/><path d="M336.615 508.467l74.616 141.069" stroke="#000" stroke-width=".5" stroke-miterlimit="10" stroke-linecap="round" stroke-dasharray="12.81 5.34"/><path d="M413.498 653.809l5.077 9.6m81.724-622.057l9.882 4.528" stroke="#000" stroke-width=".5" stroke-miterlimit="10" stroke-linecap="round"/><path d="M518.523 49.703L741.248 151.72" stroke="#000" stroke-width=".5" stroke-miterlimit="10" stroke-linecap="round" stroke-dasharray="12.15 5.06"/><path d="M745.418 153.621l9.882 4.547.073 10.868" stroke="#000" stroke-width=".5" stroke-miterlimit="10" stroke-linecap="round"/><path d="M755.428 177.947l1.178 177.405" stroke="#000" stroke-width=".5" stroke-miterlimit="10" stroke-linecap="round" stroke-dasharray="11.81 4.92"/><path d="M756.641 359.809l.073 10.868-10.88-.363" stroke="#000" stroke-width=".5" stroke-miterlimit="10" stroke-linecap="round"/><path d="M737.167 370.024l-290.577-9.745" stroke="#000" stroke-width=".5" stroke-miterlimit="10" stroke-linecap="round" stroke-dasharray="11.49 4.79"/><path d="M442.257 360.116l-10.879-.362-7.689 7.698" stroke="#000" stroke-width=".5" stroke-miterlimit="10" stroke-linecap="round"/><path d="M417.597 373.574l-90.755 90.93-124.608 42.042" stroke="#000" stroke-width=".5" stroke-miterlimit="10" stroke-linecap="round" stroke-dasharray="11.44 4.76"/><path d="M198.153 507.941l-10.317 3.478m-2.502 15.017l9.556 5.18" stroke="#000" stroke-width=".5" stroke-miterlimit="10" stroke-linecap="round"/><path d="M202.434 535.709l201.4 109.207" stroke="#000" stroke-width=".5" stroke-miterlimit="10" stroke-linecap="round" stroke-dasharray="11.36 4.73"/><path d="M407.605 646.963l9.575 5.199 8.395-6.92" stroke="#000" stroke-width=".5" stroke-miterlimit="10" stroke-linecap="round"/><path d="M432.592 639.482l306.57-251.978" stroke="#000" stroke-width=".5" stroke-miterlimit="10" stroke-linecap="round" stroke-dasharray="12.02 5.01"/><path d="M742.68 384.623l8.395-6.92m-326.861-14.056l-10.644-2.264" stroke="#000" stroke-width=".5" stroke-miterlimit="10" stroke-linecap="round"/><path d="M404.541 359.463l-363.87-77.055" stroke="#000" stroke-width=".5" stroke-miterlimit="10" stroke-linecap="round" stroke-dasharray="12.22 5.09"/><path d="M36.158 281.448l-10.644-2.246 6.818-8.477" stroke="#000" stroke-width=".5" stroke-miterlimit="10" stroke-linecap="round"/><path d="M38.078 263.57l134.11-166.554" stroke="#000" stroke-width=".5" stroke-miterlimit="10" stroke-linecap="round" stroke-dasharray="12.16 5.06"/><path d="M175.072 93.448l6.818-8.477 10.825-1.123" stroke="#000" stroke-width=".5" stroke-miterlimit="10" stroke-linecap="round"/><path d="M201.891 82.905l275.961-28.692" stroke="#000" stroke-width=".5" stroke-miterlimit="10" stroke-linecap="round" stroke-dasharray="12.2 5.08"/><path d="M482.439 53.725l10.808-1.123-9.774 4.763" stroke="#000" stroke-width=".5" stroke-miterlimit="10" stroke-linecap="round"/><path d="M475.459 61.24L43.846 270.778" stroke="#000" stroke-width=".5" stroke-miterlimit="10" stroke-linecap="round" stroke-dasharray="11.78 4.91"/><path d="M39.839 272.717l-9.792 4.764" stroke="#000" stroke-width=".5" stroke-miterlimit="10" stroke-linecap="round"/><path d="M184.12 519.118c6.69 0 12.113-5.418 12.113-12.1 0-6.683-5.423-12.1-12.113-12.1-6.689 0-12.112 5.417-12.112 12.1 0 6.682 5.423 12.1 12.112 12.1z" fill="#9CABFC"/><path d="M207.873 535.925a25.36 25.36 0 00-9.313-11.91 25.404 25.404 0 00-28.882 0 25.36 25.36 0 00-9.313 11.91h47.508zm548.95-174.523c8.693 0 15.739-7.039 15.739-15.722 0-8.684-7.046-15.723-15.739-15.723-8.692 0-15.739 7.039-15.739 15.723 0 8.683 7.047 15.722 15.739 15.722z" fill="#9CABFC"/><path d="M787.703 383.337a33.043 33.043 0 00-12.143-15.393 33.098 33.098 0 00-37.473 0 33.05 33.05 0 00-12.144 15.393h61.76zm-16.645-243.376c6.15-7.472 5.073-18.51-2.407-24.654-7.48-6.144-18.53-5.068-24.68 2.404-6.151 7.472-5.073 18.51 2.407 24.654 7.479 6.144 18.529 5.068 24.68-2.404z" fill="#9CABFC"/><path d="M791.928 170.828a36.804 36.804 0 00-13.529-17.142 36.87 36.87 0 00-41.737 0 36.816 36.816 0 00-13.529 17.142h68.795zM186.948 74.21c9.294 0 16.827-7.525 16.827-16.809 0-9.283-7.533-16.81-16.827-16.81-9.293 0-16.827 7.527-16.827 16.81 0 9.284 7.534 16.81 16.827 16.81z" fill="#9CABFC"/><path d="M219.932 97.576a35.328 35.328 0 00-12.985-16.419 35.388 35.388 0 00-40.014 0 35.324 35.324 0 00-12.986 16.42h65.985zM32.023 291.32c9.023 0 16.338-7.055 16.338-15.758 0-8.704-7.315-15.759-16.338-15.759s-16.338 7.055-16.338 15.759c0 8.703 7.315 15.758 16.338 15.758zm32.022 21.954a34.73 34.73 0 00-12.81-15.429 34.782 34.782 0 00-19.213-5.786 34.783 34.783 0 00-19.212 5.786A34.73 34.73 0 000 313.274h64.045zM508.809 32.58c6.713-6.706 6.713-17.579 0-24.285-6.713-6.706-17.597-6.706-24.31 0-6.713 6.706-6.713 17.579 0 24.285 6.713 6.706 17.597 6.706 24.31 0z" fill="#9CABFC"/><path d="M530.347 61.53a36.077 36.077 0 00-13.257-16.789 36.128 36.128 0 00-40.886 0 36.077 36.077 0 00-13.257 16.79h67.4zM427.476 670.295c6.883-6.875 6.883-18.023 0-24.899-6.883-6.876-18.042-6.876-24.925 0-6.883 6.876-6.883 18.024 0 24.899 6.883 6.876 18.042 6.876 24.925 0z" fill="#9CABFC"/><path d="M449.565 699.999a36.978 36.978 0 00-13.589-17.221 37.038 37.038 0 00-41.927 0 36.982 36.982 0 00-13.588 17.221h69.104zm136.321-512.161c8.692 0 15.739-7.039 15.739-15.723 0-8.683-7.047-15.722-15.739-15.722-8.693 0-15.74 7.039-15.74 15.722 0 8.684 7.047 15.723 15.74 15.723z" fill="#9CABFC"/><path d="M616.766 209.754a33.062 33.062 0 00-12.153-15.371 33.112 33.112 0 00-37.454 0 33.05 33.05 0 00-12.153 15.371h61.76z" fill="#9CABFC"/><path d="M676.417 261.842c10.729-10.717 10.729-28.092 0-38.809-10.728-10.717-28.121-10.717-38.849 0-10.729 10.717-10.729 28.092 0 38.809 10.728 10.717 28.121 10.717 38.849 0z" stroke="#000" stroke-width=".5" stroke-miterlimit="10" stroke-linecap="round"/><path d="M661.518 232.432c-2.611.779-4.533 4.474-4.533 4.474s-1.94-3.623-4.569-4.401c-7.58-2.156-10.88 4.673-8.069 10.995 2.81 6.321 12.692 13.404 12.692 13.404s9.847-7.481 12.693-13.622c2.847-6.14-.58-13.15-8.214-10.85z" fill="#D47172" stroke="#000" stroke-width=".5" stroke-miterlimit="10"/><path d="M143.792 617.003c13.729 0 24.86-11.118 24.86-24.833 0-13.716-11.131-24.834-24.86-24.834-13.73 0-24.86 11.118-24.86 24.834 0 13.715 11.13 24.833 24.86 24.833z" stroke="#000" stroke-width=".5" stroke-miterlimit="10" stroke-linecap="round"/><path d="M149.088 579.978c-3.046.924-5.295 5.235-5.295 5.235s-2.266-4.275-5.313-5.144c-8.848-2.518-12.801 5.434-9.41 12.806 3.39 7.372 14.778 15.65 14.778 15.65s11.478-8.73 14.705-15.885c3.228-7.155-.616-15.324-9.465-12.662zm648.18-316.967c5.981-25.612-9.956-51.219-35.596-57.193-25.639-5.974-51.272 9.946-57.253 35.558-5.981 25.613 9.956 51.219 35.595 57.194 25.64 5.974 51.273-9.946 57.254-35.559z" fill="#D47172" stroke="#000" stroke-width=".5" stroke-miterlimit="10"/><path d="M771.238 292.461a47.973 47.973 0 0018.623-20.033m.961-3.406a17.841 17.841 0 001.814-5.307m-4.951 3.424a20.703 20.703 0 01-3.119 6.267m8.83-27.842a21.25 21.25 0 01.2 8.749m-82.013-19.073a36.285 36.285 0 00-3.01 25.033" stroke="#000" stroke-width=".5" stroke-miterlimit="10"/><path d="M302.98 603.815a2.877 2.877 0 01-1.762 1.336 2.888 2.888 0 01-2.191-.304 42.512 42.512 0 00-22.34-4.945 55.339 55.339 0 00-11.587 1.522 2.883 2.883 0 11-1.523-5.561 60.388 60.388 0 0112.693-1.721 56.77 56.77 0 0112.312.888 41.152 41.152 0 0113.273 4.854 2.866 2.866 0 011.479 2.857 2.878 2.878 0 01-.354 1.074zm5.331-11.12a3.392 3.392 0 01-2.938 1.684 3.44 3.44 0 01-1.722-.452c-8.976-5.253-19.348-6.087-26.474-5.869a65.077 65.077 0 00-13.726 1.811 3.424 3.424 0 01-1.814-6.593 72.46 72.46 0 0115.141-2.029 65.989 65.989 0 0114.506 1.051 49.11 49.11 0 0115.721 5.724 3.392 3.392 0 011.731 3.401 3.4 3.4 0 01-.425 1.272z" fill="#fff"/><path d="M254.692 554.746l-5.44 6.63m-4.552 7.009a38.942 38.942 0 001.541 34.905m5.025 9.093a62.288 62.288 0 007.615 8.151" stroke="#000" stroke-width=".5" stroke-miterlimit="10"/><path d="M360.896 23.236a13.66 13.66 0 01-1.487 0 16.168 16.168 0 01-13.545-7.246v24.888c0 3.637-1.079 7.191-3.102 10.215a18.396 18.396 0 01-8.259 6.771 18.423 18.423 0 01-20.058-3.985 18.369 18.369 0 01-3.989-20.036 18.392 18.392 0 016.778-8.252 18.42 18.42 0 0110.225-3.098h1.143v9.057a8.184 8.184 0 00-1.143-.127 9.417 9.417 0 00-6.386 2.892 9.396 9.396 0 000 13 9.417 9.417 0 006.386 2.892c2.52.04 4.956-.91 6.783-2.644a9.616 9.616 0 002.991-6.63l.091-42.187h8.685a16.155 16.155 0 004.805 9.95 16.182 16.182 0 0010.082 4.541v9.999z" fill="#fff"/><path d="M634.881 139.836c29.092 0 52.675-23.559 52.675-52.62 0-29.061-23.583-52.62-52.675-52.62s-52.676 23.559-52.676 52.62c0 29.061 23.584 52.62 52.676 52.62z" fill="#A8DCA4" stroke="#000" stroke-width=".5" stroke-miterlimit="10"/><path d="M645.578 134.041a42.726 42.726 0 0021.542-10.488m2.267-2.736l5.331-5.633m-77.081-58.526a46.196 46.196 0 00-4.987 7.517m-2.883 6.848a40.894 40.894 0 00-2.937 23.548" stroke="#000" stroke-width=".5" stroke-miterlimit="10"/><path d="M104.154 218.776c28.041 0 50.772-22.707 50.772-50.718 0-28.011-22.731-50.718-50.772-50.718-28.04 0-50.771 22.707-50.771 50.718 0 28.011 22.731 50.718 50.771 50.718z" fill="#5F76E8" stroke="#000" stroke-width=".5" stroke-miterlimit="10"/><path d="M147.166 185.266a44.405 44.405 0 01-16.918 20.848m1.577-4.71l-5.077 3.261m22.448-45.284a26.915 26.915 0 01-.272 14.672m-67.036-46.135a27.505 27.505 0 00-13.654 10.488" stroke="#000" stroke-width=".5" stroke-miterlimit="10"/></g><defs><clipPath id="clip0_2_3477"><path fill="#fff" d="M0 0h799v700H0z"/></clipPath></defs></svg>