<svg width="466" height="335" fill="none" xmlns="http://www.w3.org/2000/svg"><path d="M108.132 252.204c-4.721-15.17-5.735-31.207-1.732-46.81 7.995-31.268 30.814-50.339 57.435-65.943 29.177-17.155 63.959-22.798 91.022-44.609 25.755-20.752 41.973-51.821 68.733-71.256 27.271-19.808 67.961-28.225 97.415-8.348 18.851 12.717 30.892 34.501 33.205 57.126 2.183 21.334-6.766 46.811-22.03 62.215-12.804 12.925-32.053 19.609-49.379 23.683-34.496 8.123-82.342 6.146-95.986 45.077-4.444 12.682-3.422 26.509-4.331 39.919-1.456 22.313-8.663 44.678-23.018 61.808-14.355 17.129-36.385 28.398-58.7 27.089-14.277-.867-27.878-6.597-40.084-14.06-24.291-14.893-44.216-39.079-52.55-65.891z" fill="#DBE0FC"/><path fill-rule="evenodd" clip-rule="evenodd" d="M402.769 93.507a2.713 2.713 0 01-1.283-1.404c-.866-2.063-.597-4.43-.147-6.632.027-.2.105-.392.225-.555 1.005-1.178 2.253-1.933 3.136-3.276a10.87 10.87 0 001.291-2.878c.243-.824.104-2.6.555-3.234 1.316-1.88 2.443 1.994 2.555 2.896 0 .876-.104 1.749-.312 2.6-.078.633-.225 1.257-.338 1.899.148.112.33.052.494.052h5.83c.823 0 1.222.234 1.343.78a1.562 1.562 0 01-.866 1.681c-.147.079-.416 0-.433.243-.018.243.26.208.39.295.71.485.58 1.482-.234 2.063-.191.139-.572.07-.581.364-.008.295.347.226.511.382a1.316 1.316 0 01-.554 2.037 2.362 2.362 0 00-.347.13c-.095.07-.19.138 0 .269a1.144 1.144 0 010 2.054l-.251.182a1.618 1.618 0 01-1.022.225h-9.148a1.877 1.877 0 01-.814-.173zm-6.646-4.169v-4.386c0-.295 0-.442.269-.442h3.595c.234 0 .268.121.268.424v8.834c0 .373-.069.485-.32.477h-3.465c-.286 0-.33-.148-.321-.52.026-1.457-.026-2.922-.026-4.387zM180.71 77.904a2.183 2.183 0 01-1.04-1.135c-.719-1.665-.485-3.58-.113-5.357a.97.97 0 01.174-.451c.814-.954 1.819-1.56 2.538-2.653a8.653 8.653 0 001.039-2.323c.2-.659.087-2.08.451-2.6 1.065-1.518 1.975 1.612 2.062 2.34a8.55 8.55 0 01-.251 2.09c-.061.51-.182 1.022-.278 1.534.13.095.269.043.407.043h4.713c.659 0 .988.182 1.074.624a1.265 1.265 0 01-.675 1.37c-.122.052-.33 0-.347.19-.017.191.208.165.321.243.563.382.459 1.188-.191 1.656-.165.113-.468.06-.476.294-.009.234.285.182.415.313a1.058 1.058 0 01.187.936 1.065 1.065 0 01-.637.71 2.6 2.6 0 00-.277.105c-.078.052-.148.112 0 .216a.926.926 0 01.377 1.323.924.924 0 01-.377.342l-.2.147a1.324 1.324 0 01-.823.182h-7.389a1.52 1.52 0 01-.684-.139zm-5.371-3.424v-3.546c0-.243 0-.364.208-.355h2.91c.191 0 .217.095.217.346v7.135c0 .303-.052.39-.26.381h-2.815c-.234 0-.269-.121-.269-.425.017-1.17.009-2.358.009-3.537zm119.385 173.617a2.603 2.603 0 01-1.265-1.378c-.866-2.02-.589-4.335-.139-6.502a1.17 1.17 0 01.208-.546c.997-1.162 2.218-1.898 3.084-3.225a10.53 10.53 0 001.265-2.817c.234-.806.104-2.531.546-3.173 1.291-1.846 2.4 1.959 2.503 2.844.003.855-.099 1.708-.303 2.539-.078.625-.216 1.231-.338 1.864.156.113.33.052.494.052h5.718c.805 0 1.204.226 1.317.763a1.531 1.531 0 01-.823 1.656c-.148.069-.408 0-.425.234-.017.234.251.199.381.295.693.468.572 1.447-.225 2.019-.191.13-.563.07-.572.356-.008.286.347.216.503.373a1.293 1.293 0 01.225 1.137 1.298 1.298 0 01-.771.865 2.267 2.267 0 00-.338.13c-.095.061-.182.139 0 .269a1.127 1.127 0 010 2.011l-.251.173a1.59 1.59 0 01-1.005.226h-8.966a1.895 1.895 0 01-.823-.165zm-6.532-4.101v-4.334c0-.295 0-.433.26-.433h3.526c.234 0 .269.112.269.416v8.668c0 .364-.07.468-.321.468h-3.422c-.277 0-.32-.138-.32-.511.026-1.404.017-2.843.008-4.274zm-13.679-16.281a2.496 2.496 0 01-1.179-1.274c-.814-1.881-.545-4.04-.13-6.068.025-.182.093-.354.2-.503.927-1.075 2.053-1.734 2.858-2.991a9.719 9.719 0 001.179-2.6c.216-.746.095-2.341.511-2.939 1.195-1.734 2.226 1.82 2.321 2.601 0 .794-.096 1.586-.285 2.358-.07.58-.2 1.144-.312 1.733.147.104.303.044.459.052h5.31c.745 0 1.109.208 1.222.702a1.43 1.43 0 01-.771 1.543c-.13.061-.373 0-.39.217-.017.217.234.182.355.269.65.442.529 1.344-.208 1.872-.182.13-.528.07-.537.33-.009.26.321.208.468.355a1.205 1.205 0 01.215 1.054 1.19 1.19 0 01-.718.801c-.106.034-.21.074-.311.122-.087.06-.174.121 0 .242a1.053 1.053 0 010 1.873l-.234.164a1.448 1.448 0 01-.979.243h-8.334a1.641 1.641 0 01-.71-.156zm-6.064-3.814v-3.996c0-.269 0-.399.243-.399h3.274c.217 0 .252.104.252.39v8.044c0 .339-.061.434-.295.434h-3.171c-.268 0-.303-.13-.303-.468.018-1.335.009-2.635 0-4.005z" fill="#D89CC7"/><path d="M319.934 25.174l3.014 4.239" stroke="#000" stroke-width=".5" stroke-miterlimit="10" stroke-linecap="round"/><path d="M325.625 33.166l35.05 49.212" stroke="#000" stroke-width=".5" stroke-miterlimit="10" stroke-linecap="round" stroke-dasharray="12.77 5.32"/><path d="M362.008 84.25l3.015 4.239-3.578 3.762" stroke="#000" stroke-width=".5" stroke-miterlimit="10" stroke-linecap="round"/><path d="M358.467 95.389l-59.264 62.301" stroke="#000" stroke-width=".5" stroke-miterlimit="10" stroke-linecap="round" stroke-dasharray="11.97 4.99"/><path d="M297.711 159.26l-3.586 3.762m70.898-74.534l-5.189-.234" stroke="#000" stroke-width=".5" stroke-miterlimit="10" stroke-linecap="round"/><path d="M355.624 88.064l-80.791-3.615-94.704-40.674" stroke="#000" stroke-width=".5" stroke-miterlimit="10" stroke-linecap="round" stroke-dasharray="11.66 4.86"/><path d="M178.198 42.943l-4.782-2.054m-73.143 92.953l4.999-1.43" stroke="#000" stroke-width=".5" stroke-miterlimit="10" stroke-linecap="round"/><path d="M109.621 131.181l160.283-45.597" stroke="#000" stroke-width=".5" stroke-miterlimit="10" stroke-linecap="round" stroke-dasharray="12.51 5.21"/><path d="M272.078 84.969l4.999-1.422.97 5.114" stroke="#000" stroke-width=".5" stroke-miterlimit="10" stroke-linecap="round"/><path d="M278.783 92.555l12.206 64.312" stroke="#000" stroke-width=".5" stroke-miterlimit="10" stroke-linecap="round" stroke-dasharray="10.98 4.58"/><path d="M291.363 158.818l.971 5.106m-51.832 70.719l2.434 4.603" stroke="#000" stroke-width=".5" stroke-miterlimit="10" stroke-linecap="round"/><path d="M245.094 243.336l35.657 67.511" stroke="#000" stroke-width=".5" stroke-miterlimit="10" stroke-linecap="round" stroke-dasharray="12.81 5.34"/><path d="M281.824 312.895l2.435 4.594M323.295 19.79l4.721 2.166" stroke="#000" stroke-width=".5" stroke-miterlimit="10" stroke-linecap="round"/><path d="M332 23.785l106.408 48.822" stroke="#000" stroke-width=".5" stroke-miterlimit="10" stroke-linecap="round" stroke-dasharray="12.15 5.06"/><path d="M440.4 73.518l4.722 2.175.034 5.202" stroke="#000" stroke-width=".5" stroke-miterlimit="10" stroke-linecap="round"/><path d="M445.191 85.16l.555 84.901" stroke="#000" stroke-width=".5" stroke-miterlimit="10" stroke-linecap="round" stroke-dasharray="11.81 4.92"/><path d="M445.763 172.193l.034 5.202-5.197-.174" stroke="#000" stroke-width=".5" stroke-miterlimit="10" stroke-linecap="round"/><path d="M436.459 177.082l-138.824-4.664" stroke="#000" stroke-width=".5" stroke-miterlimit="10" stroke-linecap="round" stroke-dasharray="11.49 4.79"/><path d="M295.563 172.341l-5.197-.173-3.665 3.684" stroke="#000" stroke-width=".5" stroke-miterlimit="10" stroke-linecap="round"/><path d="M283.782 178.781l-43.349 43.517-59.533 20.12" stroke="#000" stroke-width=".5" stroke-miterlimit="10" stroke-linecap="round" stroke-dasharray="11.44 4.76"/><path d="M178.943 243.086l-4.929 1.664m-1.196 7.186l4.574 2.479" stroke="#000" stroke-width=".5" stroke-miterlimit="10" stroke-linecap="round"/><path d="M180.996 256.375l96.22 52.263" stroke="#000" stroke-width=".5" stroke-miterlimit="10" stroke-linecap="round" stroke-dasharray="11.36 4.73"/><path d="M279.018 309.617l4.565 2.487 4.011-3.311" stroke="#000" stroke-width=".5" stroke-miterlimit="10" stroke-linecap="round"/><path d="M290.947 306.037l146.466-120.59" stroke="#000" stroke-width=".5" stroke-miterlimit="10" stroke-linecap="round" stroke-dasharray="12.02 5.01"/><path d="M439.092 184.069l4.011-3.311m-156.158-6.727l-5.086-1.084" stroke="#000" stroke-width=".5" stroke-miterlimit="10" stroke-linecap="round"/><path d="M277.545 172.029l-173.84-36.877" stroke="#000" stroke-width=".5" stroke-miterlimit="10" stroke-linecap="round" stroke-dasharray="12.22 5.09"/><path d="M101.548 134.692l-5.085-1.075 3.257-4.056" stroke="#000" stroke-width=".5" stroke-miterlimit="10" stroke-linecap="round"/><path d="M102.465 126.136l64.08-79.708" stroke="#000" stroke-width=".5" stroke-miterlimit="10" stroke-linecap="round" stroke-dasharray="12.16 5.06"/><path d="M167.914 44.721l3.257-4.057 5.172-.537" stroke="#000" stroke-width=".5" stroke-miterlimit="10" stroke-linecap="round"/><path d="M180.727 39.676l131.842-13.73" stroke="#000" stroke-width=".5" stroke-miterlimit="10" stroke-linecap="round" stroke-dasharray="12.2 5.08"/><path d="M314.762 25.711l5.172-.537-4.678 2.28" stroke="#000" stroke-width=".5" stroke-miterlimit="10" stroke-linecap="round"/><path d="M311.426 29.309L105.221 129.588" stroke="#000" stroke-width=".5" stroke-miterlimit="10" stroke-linecap="round" stroke-dasharray="11.78 4.91"/><path d="M103.305 130.514l-4.678 2.28" stroke="#000" stroke-width=".5" stroke-miterlimit="10" stroke-linecap="round"/><path d="M172.238 248.435a5.79 5.79 0 005.787-5.791 5.788 5.788 0 00-5.787-5.79 5.788 5.788 0 00-5.787 5.79 5.79 5.79 0 005.787 5.791z" fill="#9CABFC"/><path d="M183.595 256.478a12.128 12.128 0 00-18.247-5.7 12.136 12.136 0 00-4.45 5.7h22.697zm262.255-83.521a7.522 7.522 0 007.519-7.524 7.522 7.522 0 00-7.519-7.525 7.523 7.523 0 00-7.52 7.525 7.522 7.522 0 007.52 7.524zm14.762 10.496a15.807 15.807 0 00-14.753-10.148 15.807 15.807 0 00-14.754 10.148h29.507zm-169.553-15.299a7.522 7.522 0 007.519-7.524 7.522 7.522 0 00-7.519-7.525 7.523 7.523 0 00-7.52 7.525 7.522 7.522 0 007.52 7.524zm14.762 10.497a15.81 15.81 0 00-14.753-10.149 15.81 15.81 0 00-14.754 10.149h29.507zM452.65 66.98a8.385 8.385 0 00-1.15-11.799 8.373 8.373 0 00-11.791 1.15 8.387 8.387 0 001.15 11.8 8.373 8.373 0 0011.791-1.15z" fill="#9CABFC"/><path d="M462.629 81.752a17.598 17.598 0 00-32.867 0h32.867zm-181.028-5.161a8.387 8.387 0 000-11.854 8.373 8.373 0 00-11.847 0 8.385 8.385 0 000 11.854 8.373 8.373 0 0011.847 0z" fill="#9CABFC"/><path d="M292.116 90.735a17.618 17.618 0 00-16.438-11.297 17.605 17.605 0 00-16.438 11.297h32.876zm-118.528-55.22c4.44 0 8.039-3.602 8.039-8.045s-3.599-8.044-8.039-8.044a8.041 8.041 0 00-8.039 8.044c0 4.443 3.599 8.045 8.039 8.045z" fill="#9CABFC"/><path d="M189.355 46.697a16.91 16.91 0 00-6.204-7.858 16.886 16.886 0 00-25.321 7.858h31.525zm-89.782 92.72c4.311 0 7.805-3.376 7.805-7.541 0-4.165-3.494-7.542-7.805-7.542-4.31 0-7.805 3.377-7.805 7.542s3.494 7.541 7.805 7.541zm15.306 10.506A16.609 16.609 0 0099.58 139.77a16.61 16.61 0 00-15.299 10.153h30.598zm132.133 72.855a7.277 7.277 0 10-14.367-2.326 7.282 7.282 0 006.021 8.352 7.279 7.279 0 008.346-6.026z" fill="#9CABFC"/><path d="M254.104 239.063a15.295 15.295 0 00-28.588 0h28.588zM327.369 15.59a8.222 8.222 0 000-11.622 8.21 8.21 0 00-11.615 0 8.222 8.222 0 000 11.622 8.21 8.21 0 0011.615 0z" fill="#9CABFC"/><path d="M337.657 29.447a17.253 17.253 0 00-16.1-11.068 17.243 17.243 0 00-16.1 11.068h32.2zm-49.146 291.337a8.43 8.43 0 000-11.916 8.417 8.417 0 00-11.908 0 8.429 8.429 0 000 11.916 8.415 8.415 0 0011.908 0z" fill="#9CABFC"/><path d="M299.064 334.998a17.678 17.678 0 00-33.015 0h33.015zm65.12-245.106a7.522 7.522 0 007.519-7.524 7.522 7.522 0 00-7.519-7.524 7.522 7.522 0 00-7.52 7.524 7.522 7.522 0 007.52 7.525z" fill="#9CABFC"/><path d="M378.946 100.381a15.804 15.804 0 00-29.507 0h29.507z" fill="#9CABFC"/><path d="M407.435 125.31c5.125-5.129 5.125-13.444 0-18.573-5.126-5.129-13.435-5.129-18.561 0-5.125 5.129-5.125 13.444 0 18.573 5.126 5.129 13.435 5.129 18.561 0z" stroke="#000" stroke-width=".5" stroke-miterlimit="10" stroke-linecap="round"/><path d="M400.325 111.236c-1.248.373-2.166 2.141-2.166 2.141s-.927-1.734-2.183-2.107c-3.621-1.031-5.198 2.237-3.855 5.262 1.343 3.026 6.064 6.415 6.064 6.415s4.704-3.58 6.064-6.519c1.36-2.938-.277-6.293-3.924-5.192z" fill="#D47172" stroke="#000" stroke-width=".5" stroke-miterlimit="10"/><path d="M311.885 76.709c6.559 0 11.877-5.321 11.877-11.885s-5.318-11.884-11.877-11.884c-6.56 0-11.877 5.32-11.877 11.884s5.317 11.885 11.877 11.885z" stroke="#000" stroke-width=".5" stroke-miterlimit="10" stroke-linecap="round"/><path d="M314.051 59.96c-1.248.382-2.166 2.142-2.166 2.142s-.918-1.734-2.166-2.098c-3.612-1.031-5.198 2.228-3.846 5.201 1.351 2.974 6.064 6.39 6.064 6.39s4.678-3.572 6.003-6.494c1.326-2.921-.286-6.224-3.889-5.14z" fill="#D47172" stroke="#000" stroke-width=".5" stroke-miterlimit="10"/><path d="M152.971 295.279c6.559 0 11.877-5.321 11.877-11.884 0-6.564-5.318-11.885-11.877-11.885-6.56 0-11.877 5.321-11.877 11.885 0 6.563 5.317 11.884 11.877 11.884z" stroke="#000" stroke-width=".5" stroke-miterlimit="10" stroke-linecap="round"/><path d="M155.509 277.561c-1.455.442-2.529 2.505-2.529 2.505s-1.083-2.045-2.538-2.462c-4.228-1.204-6.117 2.601-4.497 6.129 1.62 3.528 7.061 7.49 7.061 7.49s5.483-4.178 7.025-7.602c1.542-3.425-.294-7.334-4.522-6.06z" fill="#D47172" stroke="#000" stroke-width=".5" stroke-miterlimit="10"/><path d="M343.7 125.192c2.495-12.712-5.781-25.041-18.485-27.537-12.704-2.497-25.025 5.785-27.52 18.497-2.495 12.713 5.781 25.042 18.485 27.538 12.705 2.496 25.026-5.785 27.52-18.498z" fill="#5F76E8" stroke="#000" stroke-width=".5" stroke-miterlimit="10"/><path d="M341.217 127.697a21.56 21.56 0 01-5.492 7.958l5.492-7.958z" fill="#5F76E8"/><path d="M341.217 127.697a21.56 21.56 0 01-5.492 7.958" stroke="#000" stroke-width=".5" stroke-miterlimit="10"/><path d="M334.504 136.895l-2.867 2.21 2.867-2.21z" fill="#5F76E8"/><path d="M334.504 136.895l-2.867 2.21" stroke="#000" stroke-width=".5" stroke-miterlimit="10"/><path d="M336.012 133.332c-.322.49-.744.907-1.239 1.222l1.239-1.222z" fill="#5F76E8"/><path d="M336.012 133.332c-.322.49-.744.907-1.239 1.222" stroke="#000" stroke-width=".5" stroke-miterlimit="10"/><path d="M340.654 122.115a22.523 22.523 0 01-1.369 6.068l1.369-6.068z" fill="#5F76E8"/><path d="M340.654 122.115a22.523 22.523 0 01-1.369 6.068" stroke="#000" stroke-width=".5" stroke-miterlimit="10"/><path d="M465.172 125.869c2.857-12.258-4.757-24.512-17.007-27.371-12.249-2.86-24.495 4.759-27.353 17.017-2.857 12.257 4.757 24.512 17.006 27.371 12.25 2.859 24.496-4.76 27.354-17.017z" fill="#D47172" stroke="#000" stroke-width=".5" stroke-miterlimit="10"/><path d="M452.746 139.963a22.945 22.945 0 008.897-9.588m.459-1.63c.42-.796.713-1.653.866-2.54m-2.365 1.639a9.916 9.916 0 01-1.49 2.999m4.219-13.323c.322 1.373.354 2.799.095 4.186m-39.184-9.128a17.399 17.399 0 00-1.438 11.98" stroke="#000" stroke-width=".5" stroke-miterlimit="10"/><path d="M220.257 302.639c12.564 0 22.749-10.192 22.749-22.764s-10.185-22.764-22.749-22.764c-12.564 0-22.749 10.192-22.749 22.764s10.185 22.764 22.749 22.764z" fill="#A8DCA4" stroke="#000" stroke-width=".5" stroke-miterlimit="10"/><path d="M229.033 288.968a1.381 1.381 0 01-1.38.671 1.386 1.386 0 01-.509-.177 20.269 20.269 0 00-10.672-2.366c-1.866.046-3.722.29-5.536.728a1.378 1.378 0 01-1.694-.967 1.381 1.381 0 01.966-1.695 28.786 28.786 0 016.064-.823 27.029 27.029 0 015.882.425 19.63 19.63 0 016.342 2.323 1.374 1.374 0 01.706 1.367 1.373 1.373 0 01-.169.514zm2.546-5.322a1.619 1.619 0 01-1.404.806 1.642 1.642 0 01-.823-.217c-4.288-2.513-9.243-2.912-12.648-2.808-2.21.054-4.409.345-6.558.867a1.636 1.636 0 01-1.929-1.167 1.637 1.637 0 011.063-1.989 34.601 34.601 0 017.234-.971c2.321-.088 4.646.08 6.93.503a23.454 23.454 0 017.511 2.74 1.632 1.632 0 01.624 2.236zm1.585-4.837c-.354 0-.701-.096-1.005-.277-10.196-5.965-23.39-2.419-23.554-2.384a2.01 2.01 0 01-1.572-.138 2 2 0 01-.983-1.235 2.003 2.003 0 011.498-2.485 41.674 41.674 0 018.871-1.205 39.126 39.126 0 018.541.624 28.79 28.79 0 019.218 3.364 2 2 0 01.93 2.258 2.003 2.003 0 01-1.944 1.478z" fill="#fff"/><path d="M205.962 265.484l-2.599 3.173m-2.174 3.357a18.665 18.665 0 00.737 16.704m2.398 4.35a29.791 29.791 0 003.639 3.901" stroke="#000" stroke-width=".5" stroke-miterlimit="10"/><path d="M339.275 286.006c1.022-12.415-8.207-23.309-20.614-24.332-12.407-1.023-23.294 8.212-24.316 20.628-1.022 12.415 8.207 23.308 20.614 24.331 12.407 1.023 23.294-8.212 24.316-20.627z" fill="#D47172" stroke="#000" stroke-width=".5" stroke-miterlimit="10"/><path d="M323.25 303.67a11.77 11.77 0 005.856-2.852m-20.159 1.604c3.058 2.046 8.213 2.67 11.799 1.846m-10.412-39.399a10.393 10.393 0 00-5.648 2.817m25.998 31.737a4.67 4.67 0 00.866-.937" stroke="#000" stroke-width=".5" stroke-miterlimit="10"/><path d="M244.677 46.507c12.775 0 23.13-10.362 23.13-23.145S257.452.217 244.677.217c-12.774 0-23.13 10.362-23.13 23.145s10.356 23.145 23.13 23.145z" fill="#D89CC7" stroke="#000" stroke-width=".5" stroke-miterlimit="10"/><path d="M256.701 20.69a6.468 6.468 0 01-.71 0 7.724 7.724 0 01-6.472-3.467v11.911a8.8 8.8 0 01-10.508 8.63 8.79 8.79 0 01-6.908-6.913 8.794 8.794 0 01.5-5.084 8.793 8.793 0 018.124-5.432h.545v4.335a3.894 3.894 0 00-.545-.061 4.5 4.5 0 000 8.99 4.597 4.597 0 004.669-4.439l.043-20.19h4.15a7.726 7.726 0 007.112 6.935v4.786z" fill="#fff"/><path d="M251.287 43.394a18.965 18.965 0 009.824-7.472m1.864-2.877a27.615 27.615 0 001.975-5.201m-37.703-14.6a18.39 18.39 0 00-2.599 13.515m.711 3.13a8.304 8.304 0 00.815 3.354m.295-10.766c.009 1.28.137 2.557.381 3.814" stroke="#000" stroke-width=".5" stroke-miterlimit="10"/><path d="M387.592 66.921c13.899 0 25.166-11.274 25.166-25.182s-11.267-25.182-25.166-25.182c-13.899 0-25.166 11.274-25.166 25.182s11.267 25.182 25.166 25.182z" fill="#A8DCA4" stroke="#000" stroke-width=".5" stroke-miterlimit="10"/><path d="M392.711 64.148a20.4 20.4 0 0010.292-5.02m1.083-1.309l2.547-2.696m-36.827-28.008a22.143 22.143 0 00-2.382 3.598m-1.379 3.275a19.609 19.609 0 00-1.403 11.27" stroke="#000" stroke-width=".5" stroke-miterlimit="10"/><path d="M134.034 104.699c13.396 0 24.256-10.867 24.256-24.272 0-13.406-10.86-24.273-24.256-24.273-13.397 0-24.257 10.867-24.257 24.273 0 13.405 10.86 24.272 24.257 24.272z" fill="#5F76E8" stroke="#000" stroke-width=".5" stroke-miterlimit="10"/><path d="M154.59 88.662a21.245 21.245 0 01-8.082 9.978m.754-2.253l-2.426 1.56m10.726-21.672a12.897 12.897 0 01-.13 7.022m-32.028-22.08a13.142 13.142 0 00-6.523 5.019" stroke="#000" stroke-width=".5" stroke-miterlimit="10"/><path d="M251.036 153.824c-7.641 3.207-15.516 6.172-23.772 6.891-4.063.356-9.217-.606-10.274-4.551-.702-2.6.866-5.279 2.538-7.377 7.087-8.764 17.664-13.791 27.878-18.533 5.726-2.67 22.61-5.748 25.59 2.834 3.414 9.831-15.61 18.066-21.96 20.736z" fill="#fff"/><path d="M251.036 153.824c-7.641 3.207-15.516 6.172-23.772 6.891-4.063.356-9.217-.606-10.274-4.551-.702-2.6.866-5.279 2.538-7.377 7.087-8.764 17.664-13.791 27.878-18.533 5.726-2.67 22.61-5.748 25.59 2.834 3.414 9.831-15.61 18.066-21.96 20.736z" stroke="#000" stroke-width=".5" stroke-miterlimit="10" stroke-linecap="round"/><path d="M244.192 158.584a8.673 8.673 0 01.988 3.77c.103 4.049-.867 7.976-1.794 11.877-.927 3.9-2.252 9.535-6.679 10.809a35.126 35.126 0 01-6.644 1.214c-2.599.217-5.389.095-7.589-1.326-2.201-1.422-3.465-4.508-2.157-6.771.866-1.447 2.477-2.21 3.742-3.32 2.833-2.479 3.639-6.475 4.6-10.107 1.222-4.69 4.644-7.083 7.797-10.403.243-.304.536-.565.866-.771 1.048-.529 2.305.121 3.24.867a12.656 12.656 0 013.63 4.161zm-104.779-26.137c2.209-4.439 6.064-7.672 10.265-10.151a117.57 117.57 0 0114.901-7.516c1.931-.789 4.019-1.543 6.064-1.084 2.044.46 3.664 2.081 4.851 3.823a25.85 25.85 0 013.266 7.256c.745 2.505.866 5.375 1.732 7.802 1.993 5.487 3.344 10.48 2.547 16.47a19.62 19.62 0 01-1.576 5.782c-1.516 3.268-4.15 5.86-6.783 8.322-2.348 2.202-4.791 4.404-7.702 5.782a24.638 24.638 0 01-8.42 2.046c-9.599.867-19.674-1.335-27.297-7.23-4.124-3.181-2.235-8.833-.442-12.691 2.867-6.232 5.544-12.474 8.594-18.611z" fill="#fff"/><path d="M122.079 256.885a67.22 67.22 0 00-6.931 7.316c-1.949 2.402-3.716 4.942-5.717 7.299a73.849 73.849 0 01-9.763 9.536c-3.327 2.687-5.605 6.84-8.265 10.194a200.67 200.67 0 01-20.185 21.776 30.436 30.436 0 01-5.735 4.482 22.577 22.577 0 01-7.294 2.366 36.722 36.722 0 01-11.73.07c-8.663-1.344-16.607-5.748-24.091-10.403a86.53 86.53 0 01-11.548-8.183 24.262 24.262 0 01-5.692-6.718c-1.55-2.913-2.92-7.386-2.599-10.732.252-3.051 2.183-6.606 3.37-9.432a77.41 77.41 0 0111.808-19.435c11.721-14.077 27.8-23.31 42.83-33.365 14.528-9.709 28.7-19.747 41.487-31.649 5.544-5.202 11.21-9.103 13.973-16.575 1.369-3.71 1.941-7.672 3.284-11.382 1.55-4.265 4.071-8.096 6.584-11.885l6.202-9.37c3.465-5.202 7.035-10.594 12.033-14.416.979-.755 2.114-1.483 3.543-.642a3.32 3.32 0 011.43 1.899c1.342 4.377.485 11.399.13 15.985-.434 5.695-1.378 11.338-1.508 17.051a36.909 36.909 0 002.513 14.095c1.836 5.123 2.321 10.775 3.586 16.063 1.819 7.62 5.198 14.043 11.401 18.88 5.908 4.577 13.453 0 19.872-1.733 2.192-.581 5.406-.807 7.225-2.194 1.82-1.387 3.327-4.048 4.618-5.808 2.018-2.756 8.082-11.035 12.128-6.345a5.466 5.466 0 011.152 2.332c.918 3.684 3.916 12.543.866 16.184a15.417 15.417 0 01-3.794 3c-8.342 5.261-17.473 9.162-26.318 13.635-5.631 2.844-11.747 4.508-17.837 6.068-6.09 1.561-12.657 2.523-17.933 5.73-8.022 4.872-16.13 9.952-23.095 16.306z" fill="#fff"/><path d="M228.547 182.942c1.17 4.542.477 9.319-.225 13.956-.294 1.907-.624 3.901-1.81 5.418a8.825 8.825 0 01-3.933 2.601 20.382 20.382 0 01-11.6.823c-2.668-.589-5.536-2.106-6.116-4.776-.364-1.734.303-3.468.953-5.054 1.109-2.722 2.212-5.441 3.309-8.157 1.932-4.768 4.773-11.191 10.118-13.09 4.635-1.682 8.343 4.543 9.304 8.279z" fill="#fff"/><path d="M160.403 228.591l-42.76-30.028c-4.609-3.233-5.198-9.119-1.378-13.15l93.249-97.644a12.122 12.122 0 0115.299-1.43l42.76 30.037c4.609 3.233 5.198 9.119 1.378 13.141l-93.249 97.653a12.125 12.125 0 01-15.299 1.421z" fill="#000"/><path d="M162.275 225.097l-45.672-32.074a4.88 4.88 0 01-1.974-5.767 4.882 4.882 0 011.169-1.835l95.977-100.478a7.024 7.024 0 018.845-.867l45.671 32.074a4.878 4.878 0 012.228 3.609 4.891 4.891 0 01-1.431 3.993l-95.951 100.522a7.036 7.036 0 01-8.862.823z" fill="#fff"/><path d="M243.413 107.117l-7.797-5.452a.595.595 0 01-.243-.412.578.578 0 01.148-.455.866.866 0 011.057-.104l7.796 5.452a.584.584 0 01.096.911.87.87 0 01-1.057.06zm-12.441-8.737a.583.583 0 01-.238-.691.582.582 0 01.142-.22.868.868 0 011.057-.103.582.582 0 01.096.91.868.868 0 01-1.057.104z" fill="#000"/><path d="M229.431 168.456a1.145 1.145 0 01-.182-1.785l3.777-3.962a1.665 1.665 0 012.088-.191 1.148 1.148 0 01.46 1.357 1.14 1.14 0 01-.278.429l-3.786 3.962a1.648 1.648 0 01-2.079.19zm17.889-18.732a1.148 1.148 0 01-.46-1.357 1.14 1.14 0 01.278-.429l11.522-12.067a1.659 1.659 0 012.079-.199 1.154 1.154 0 01.19 1.794l-11.521 12.067a1.665 1.665 0 01-2.088.191z" fill="#5F76E8"/><path d="M247.943 150.157a1.149 1.149 0 01-.522-.847 1.15 1.15 0 01.331-.939l11.548-12.066a1.661 1.661 0 012.079-.2 1.144 1.144 0 01.523.854 1.146 1.146 0 01-.341.941l-11.522 12.066a1.643 1.643 0 01-2.096.191zm-17.889 18.769a1.137 1.137 0 01-.361-.366 1.15 1.15 0 01.17-1.429l3.786-3.961a1.643 1.643 0 012.079-.191 1.149 1.149 0 01.522.847 1.15 1.15 0 01-.331.939l-3.786 3.961a1.661 1.661 0 01-2.079.2z" fill="#000"/><path d="M222.725 175.487a1.135 1.135 0 01-.36-.363 1.142 1.142 0 01.17-1.423l3.786-3.961c.269-.27.624-.438 1.003-.475.38-.036.76.061 1.076.275a1.152 1.152 0 01.19 1.786l-3.785 3.962a1.64 1.64 0 01-2.08.199z" fill="#AFB3BC"/><path d="M223.341 175.921a1.149 1.149 0 01-.19-1.786l3.786-3.962a1.66 1.66 0 012.087-.199 1.145 1.145 0 01.182 1.786l-3.785 3.97a1.647 1.647 0 01-2.08.191z" fill="#000"/><path d="M172.827 222.385l-55.313-38.853 91.602-95.919 55.313 38.845-91.602 95.927z" fill="#D89CC7"/><path d="M161.063 225.203l-44.32-31.138a6.237 6.237 0 01-2.843-4.604 6.236 6.236 0 011.821-5.096l94.833-99.29a8.983 8.983 0 0111.262-1.058l44.346 31.163a6.24 6.24 0 012.843 4.604 6.236 6.236 0 01-1.821 5.097l-94.825 99.264a8.988 8.988 0 01-11.296 1.058zM220.742 85.17a7.048 7.048 0 00-8.871.866l-94.825 99.265a4.896 4.896 0 00-.732 6.066 4.88 4.88 0 001.529 1.554l44.32 31.129a7.045 7.045 0 008.871-.867l94.834-99.265a4.895 4.895 0 00.726-6.067 4.893 4.893 0 00-1.532-1.552l-44.32-31.13z" fill="#5F76E8"/><path d="M161.643 224.761l-44.51-31.259a5.324 5.324 0 01-.866-8.27l95.241-99.69a7.653 7.653 0 019.624-.867l44.511 31.26a5.324 5.324 0 012.42 3.931 5.338 5.338 0 01-1.554 4.347l-95.241 99.69a7.654 7.654 0 01-9.625.858zm59.073-139.73a6.924 6.924 0 00-8.715.815l-95.241 99.689a4.817 4.817 0 00.789 7.49l44.501 31.259a6.928 6.928 0 008.724-.815l95.241-99.689a4.836 4.836 0 001.401-3.934 4.832 4.832 0 00-2.189-3.556l-44.511-31.26z" fill="#000"/><path d="M243.447 142.858a10.325 10.325 0 01-12.76 1.127c-3.726-2.653-4.055-7.464-.737-10.741a10.318 10.318 0 0112.769-1.127c3.726 2.653 4.046 7.464.728 10.741z" fill="#A8DCA4" stroke="#000" stroke-width=".5" stroke-miterlimit="10"/><path d="M236.897 142.277a.619.619 0 01-.537-.078.477.477 0 01-.156-.191 6.581 6.581 0 00-2.538-2.878 9.9 9.9 0 00-1.837-.979.416.416 0 01-.242-.607.615.615 0 01.727-.243c.713.29 1.395.65 2.036 1.075a9.475 9.475 0 011.629 1.361 5.807 5.807 0 011.265 1.942.48.48 0 01-.042.376.468.468 0 01-.305.222zm2.167-.849a.72.72 0 01-.632-.086.493.493 0 01-.182-.235 7.87 7.87 0 00-3.015-3.406 11.456 11.456 0 00-2.174-1.153.498.498 0 01-.354-.515.482.482 0 01.068-.213.722.722 0 01.866-.278c.842.34 1.647.767 2.4 1.275.705.46 1.355.998 1.941 1.603a7.278 7.278 0 011.498 2.297.558.558 0 01-.205.619.562.562 0 01-.211.092zm1.75-.928a.731.731 0 01-.234-.286c-1.447-3.71-6.307-5.582-6.35-5.6a.596.596 0 01-.388-.347.614.614 0 01.024-.52.867.867 0 011.065-.346c1.032.42 2.019.943 2.946 1.56a13.645 13.645 0 012.374 1.968 8.93 8.93 0 011.845 2.826.693.693 0 01-.066.545.696.696 0 01-.445.322.874.874 0 01-.771-.122z" fill="#fff"/><path d="M189.804 136.269c4.961-.664 8.532-4.575 7.976-8.737-.556-4.161-5.027-6.998-9.988-6.334-4.96.663-8.531 4.574-7.975 8.736.555 4.162 5.027 6.998 9.987 6.335z" fill="#D47172" stroke="#000" stroke-width=".5" stroke-miterlimit="10"/><path d="M205.118 121.062c4.955-.701 8.494-4.643 7.906-8.804-.588-4.162-5.081-6.967-10.036-6.266-4.954.701-8.494 4.643-7.906 8.805.589 4.161 5.082 6.966 10.036 6.265z" fill="#A8DCA4" stroke="#000" stroke-width=".5" stroke-miterlimit="10"/><path d="M223.871 159.814c4.978-1.069 8.291-5.301 7.4-9.453-.89-4.152-5.647-6.652-10.624-5.583s-8.291 5.301-7.4 9.453c.89 4.152 5.647 6.652 10.624 5.583z" fill="#5F76E8" stroke="#000" stroke-width=".5" stroke-miterlimit="10"/><path d="M226.52 130.783a10.326 10.326 0 01-12.761 1.127c-3.725-2.653-4.054-7.464-.727-10.741a10.303 10.303 0 0112.76-1.127c3.725 2.67 4.055 7.481.728 10.741z" fill="#D47172" stroke="#000" stroke-width=".5" stroke-miterlimit="10"/><path d="M211.922 145.208a10.326 10.326 0 01-12.761 1.127c-3.725-2.661-4.054-7.464-.736-10.74a10.306 10.306 0 016.184-2.785 10.305 10.305 0 016.576 1.658c3.734 2.652 4.055 7.463.737 10.74z" fill="#D89CC7" stroke="#000" stroke-width=".5" stroke-miterlimit="10"/><path d="M209.375 142.209l-.216-.139a2.23 2.23 0 01-.979-2.236l-3.102 3.086a3.914 3.914 0 01-4.851.424 2.589 2.589 0 01-1.131-1.974 2.593 2.593 0 01.854-2.109 3.917 3.917 0 014.851-.424c.056.035.108.076.156.121l-1.126 1.11-.147-.13a2.015 2.015 0 00-2.478.216 1.33 1.33 0 00-.268 1.651c.1.175.239.325.407.438a2.066 2.066 0 002.512-.19l5.267-5.201 1.213.866a2.232 2.232 0 00-.565 1.686 2.233 2.233 0 00.842 1.565l-1.248 1.231" fill="#fff"/><path d="M213.795 172.532a10.326 10.326 0 01-12.761 1.127c-3.725-2.653-4.054-7.464-.736-10.741a10.325 10.325 0 0112.76-1.126c3.734 2.652 4.055 7.463.737 10.74z" fill="#D89CC7" stroke="#000" stroke-width=".5" stroke-miterlimit="10"/><path d="M165.887 163.213a10.326 10.326 0 01-12.761 1.127c-3.725-2.653-4.054-7.464-.736-10.741a10.32 10.32 0 0112.752-1.144c3.733 2.679 4.062 7.49.745 10.758z" fill="#A8DCA4" stroke="#000" stroke-width=".5" stroke-miterlimit="10"/><path d="M180.467 148.805a10.32 10.32 0 01-12.761 1.127c-3.725-2.652-4.054-7.463-.736-10.74a10.321 10.321 0 0112.76-1.127c3.751 2.653 4.081 7.455.737 10.74zm13.744 40.683c4.977-1.069 8.291-5.301 7.4-9.453-.89-4.152-5.647-6.652-10.624-5.583-4.977 1.068-8.291 5.301-7.4 9.453.89 4.152 5.647 6.651 10.624 5.583z" fill="#5F76E8" stroke="#000" stroke-width=".5" stroke-miterlimit="10"/><path d="M196.866 160.473a10.32 10.32 0 01-12.761 1.127c-3.725-2.652-4.054-7.463-.728-10.74a10.326 10.326 0 0112.761-1.127c3.725 2.653 4.054 7.464.728 10.74z" fill="#fff" stroke="#222221" stroke-width=".5" stroke-miterlimit="10"/><path opacity=".5" d="M167.204 211.713l-37.632-26.404a3.467 3.467 0 01-1.347-4.062c.174-.485.454-.924.818-1.287a4 4 0 015.146-.52l37.615 26.396a3.52 3.52 0 011.509 2.551 3.505 3.505 0 01-.981 2.798 3.998 3.998 0 01-5.128.528z" fill="#fff"/><path d="M241.108 155.055c-.373-.26-.745-.502-1.118-.737a156.497 156.497 0 00-9.347-5.556c-2.4-1.326-5.042-3.832-8.039-2.869-1.923.624-3.076 2.644-3.465 4.629-.676 3.623.684 7.411 2.954 10.315 2.269 2.904 5.873 4.707 8.905 6.883a.393.393 0 01.182.191.42.42 0 01-.069.364c-.624 1.196-3.136 4.967-3.916 6.068-.935 1.309 1.395.165 3.171-.373a7.798 7.798 0 014.123-.086c1.976.346 5.198-.677 6.879-1.734a5.727 5.727 0 002.339-2.358c1.611-3.528 2.495-9.64-.286-12.795a12.047 12.047 0 00-2.313-1.942zm-31.464 16.229l-6.861-1.821a4.993 4.993 0 00-2.842-.199 3.833 3.833 0 00-2.148 2.262c-1.482 3.416-.234 7.533 2.191 10.351 2.426 2.817 5.831 4.577 9.227 6.068 3.395 1.491 8.125 3.389 8.602 5.201.372 1.396 2.486-1.491 3.517-2.505 3.162-3.104 9.469-10.723 4.332-14.694-2.703-2.071-7.797-2.453-11.054-3.311l-4.964-1.352zm-10.941 18.663c-1.352-.243-2.721-.451-4.072-.659-4.219-.624-10.5.243-10.526 5.895a7.126 7.126 0 002.764 5.279 20.894 20.894 0 005.371 2.956c2.374 1.023 6.021 1.734 7.632 3.866 1.975 2.601 2.166 6.346 6.333 6.58a6.067 6.067 0 005.302-3.294 12.941 12.941 0 001.282-6.398 20.047 20.047 0 00-2.14-9.362c-1.594-2.982-8.888-4.291-11.946-4.863z" fill="#fff"/><path d="M175.893 177.692c4.955-.651 8.529-4.548 7.984-8.705-.546-4.156-5.004-6.998-9.959-6.347-4.954.651-8.529 4.548-7.983 8.705.545 4.156 5.004 6.998 9.958 6.347z" fill="#D47172" stroke="#000" stroke-width=".499" stroke-miterlimit="10"/><path d="M161.538 136.851a63.339 63.339 0 00-4.478 3.866c-.442.425-1.031.867-1.612.685a1.615 1.615 0 01-.797-.867 37.94 37.94 0 01-3.768-10.177c-.615-2.826-2.053-7.342.745-9.258 3.119-2.132 7.13-3.563 10.569-5.132 3.82-1.734 7.797-2.999 11.669-4.56 3.526-1.413 7.415-.407 11.149-.069a38.12 38.12 0 009.001.121c3.682-.528 8.169-1.603 10.396 2.402a7.9 7.9 0 010 7.082 13.637 13.637 0 01-4.912 5.349 21.602 21.602 0 01-17.725 2.756 12.982 12.982 0 00-3.552-.771c-2.235 0-5.509 1.577-7.554 2.6a51.518 51.518 0 00-9.131 5.973z" fill="#fff"/><path d="M209.393 187.943a26.983 26.983 0 006.93 2.298m-18.071-19.512c-.528.944.078 2.305.719 3.164a6.55 6.55 0 002.599 1.872v0a5.045 5.045 0 005.808-1.252 5.072 5.072 0 001.045-1.825c.13-.408.242-.815.355-1.231m-11.262 19.088a5.035 5.035 0 01-8.776 3.58m43.479-43.977a3.811 3.811 0 01-3.292 2.835 5.902 5.902 0 01-4.331-1.396 13.8 13.8 0 01-2.946-3.571m6.118 17.562a41.649 41.649 0 005.812 3.286m-30.043-56.224c-1.87.615-3.813.976-5.778 1.075a7.386 7.386 0 01-5.38-2.002" stroke="#000" stroke-width=".5" stroke-miterlimit="10"/><path d="M229.135 186.315l.927-.061a35.122 35.122 0 006.645-1.214c4.426-1.265 5.7-6.839 6.679-10.809.979-3.971 1.897-7.802 1.793-11.876 0-.191 0-.373-.052-.564-.052-.191 0-.269 0-.407v-.052a7.808 7.808 0 00-1.733-4.335 9.174 9.174 0 00-1.022-.988c-3.465-2.913-7.736-5.054-11.704-7.23-2.399-1.326-5.041-3.831-8.039-2.869-1.923.624-3.075 2.644-3.465 4.629-.676 3.624.684 7.412 2.954 10.316a23.817 23.817 0 006.211 5.08" stroke="#000" stroke-width=".5" stroke-miterlimit="10" stroke-linecap="round"/><path d="M228.321 196.9c.866-5.73 1.334-12.518-.702-18.066a6.926 6.926 0 00-5.423-4.534c-2.529-.762-5.466-1.127-7.588-1.69l-4.964-1.326-6.861-1.821a4.993 4.993 0 00-2.842-.199 3.833 3.833 0 00-2.148 2.262c-1.482 3.416-.234 7.533 2.191 10.351 2.426 2.817 5.718 4.516 9.053 6.016l-3.248 8.018c-.65 1.613-1.317 3.346-.953 5.054.58 2.67 3.465 4.187 6.116 4.777 3.864.857 7.895.571 11.6-.824a8.825 8.825 0 003.933-2.601c1.212-1.517 1.542-3.51 1.836-5.417z" stroke="#000" stroke-width=".5" stroke-miterlimit="10" stroke-linecap="round"/><path d="M198.703 189.947c-2.711-.503-5.483-.798-8.221-1.196a6.86 6.86 0 00-2.971 0 4.513 4.513 0 00-2.677 2.774c-1.291 3.294-.702 6.614 2.036 8.92a20.894 20.894 0 005.371 2.956c2.373 1.022 6.021 1.733 7.632 3.866 1.975 2.6 2.166 6.345 6.333 6.579a6.057 6.057 0 005.301-3.294 12.913 12.913 0 001.282-6.397 20.046 20.046 0 00-2.139-9.362c-1.594-2.965-8.889-4.274-11.947-4.846z" fill="#fff"/><path d="M211.507 210.535a12.935 12.935 0 001.282-6.397 20.047 20.047 0 00-2.14-9.362c-1.611-2.982-8.888-4.291-11.946-4.863-3.058-.572-6.064-1.101-9.14-1.37a5.323 5.323 0 00-1.776.043 3.908 3.908 0 00-2.278 1.829 9.64 9.64 0 00-1.404 4.734 7.137 7.137 0 002.764 5.279 20.894 20.894 0 005.371 2.956" stroke="#000" stroke-width=".5" stroke-miterlimit="10" stroke-linecap="round"/><path d="M210.285 212.624a10.228 10.228 0 01-3.014 2.531c-8.343 5.262-17.474 9.163-26.319 13.636-9.451 4.776-20.661 6.614-30.701 9.899-9.634 3.147-17.222 9.319-24.794 16.055-16.459 14.736-29.922 32.394-44.406 48.995-7.91 9.084-16.59 18.152-27.852 22.365-15.299 5.721-33.967.676-44.302-11.972-10.335-12.647-11.583-31.961-2.946-45.831 5.085-8.174 12.943-14.173 20.627-19.981 4.227 0 15.056-11.391 18.625-14.087l19.726-14.918c12.57-9.536 25.504-18.551 37.052-29.292 5.544-5.201 11.209-9.102 13.973-16.574 1.369-3.71 1.94-7.672 3.283-11.382 1.551-4.265 4.072-8.097 6.584-11.885l6.203-9.371c3.465-5.201 7.034-10.593 12.033-14.416m6.851-4.446c.555-.321 1.1-.633 1.655-.937.08-.071.164-.137.251-.199a35.415 35.415 0 015.796-2.982 99.834 99.834 0 016.861-3.06 18.114 18.114 0 013.049-.98c2.019-.736 4.037-1.439 6.064-2.219 3.465-1.352 7.268-.364 10.924 0a38.09 38.09 0 008.819.139c3.613-.494 8.005-1.508 10.197 2.366a7.526 7.526 0 01.043 6.831c-1.871 3.962-6.341 6.814-10.396 8.132-3.508 1.144-7.138.788-10.82.52-2.859-.2-5.397-1.483-8.238-1.11" stroke="#000" stroke-width=".5" stroke-miterlimit="10" stroke-linecap="round"/><path d="M192.066 203.254c2.937 1.448 6.142 2.939 9.365 2.332m-5.717-16.186c-.243.928-.52 1.855-.867 2.766a5.036 5.036 0 01-.788 1.603 3.976 3.976 0 01-2.755 1.249c-2.304.19-4.539-.867-6.618-1.907" stroke="#000" stroke-width=".5" stroke-miterlimit="10"/><path d="M179.333 126.883l-7.987 3.329" stroke="#000" stroke-width=".5" stroke-miterlimit="10" stroke-linecap="round"/><path d="M142.351 238.838l-5.683 3.285m-3.847 2.385a109.806 109.806 0 00-14.034 11.702m17.318-16.202a16.493 16.493 0 00-4.15 2.418m-29.057-47.6l-7.181 5.687m128.931-22.105a6.821 6.821 0 011.837 5.947m-77.559-61.14l-2.365 1.543m1.048 2.558a28.586 28.586 0 00-6.125 4.508m-1.94 1.942l-1.343 1.491m54.274-22.114a7.747 7.747 0 002.867 1.153" stroke="#222221" stroke-width=".5" stroke-miterlimit="10"/><path d="M243.352 159.389a6.818 6.818 0 00-2.114 1.335m2.105-.035c-.46.136-.872.401-1.187.763m-15.705 24.698v1.647m-96.611 55.844l-1.195.866m46.625-29.638l3.889-4.195m-58.649-23.545l6.93 4.967m1.318.92c.458.489.993.899 1.585 1.213m-4.939-2.01l1.681 1.239m137.327-75.679a3.23 3.23 0 011.557 4.082 3.24 3.24 0 01-.924 1.284" stroke="#000" stroke-width=".5" stroke-miterlimit="10" stroke-linecap="round"/></svg>