<svg width="70" height="46" fill="none" xmlns="http://www.w3.org/2000/svg"><g clip-path="url(#clip0_209_33240)" fill="#7687EE"><path d="M23.84 34.629c.2-.033.402-.05.605-.048a.998.998 0 01.685.203.662.662 0 01.213.511.715.715 0 01-.189.533 1.003 1.003 0 01-.744.267 1.241 1.241 0 01-.266-.021v.978h-.304v-2.423zm.314 1.175c.088.02.177.03.267.027.381 0 .613-.186.613-.533 0-.346-.23-.477-.576-.477-.1-.002-.2.006-.298.024l-.006.96zm3.193.343a.857.857 0 01-.871.93.832.832 0 01-.84-.9.856.856 0 01.87-.93.826.826 0 01.841.9zm-1.388.019c0 .384.22.674.533.674.312 0 .533-.288.533-.682 0-.296-.147-.672-.533-.672-.387 0-.533.347-.533.68zm3.137.808a1.2 1.2 0 01-.503.101.834.834 0 01-.872-.895.89.89 0 01.941-.93c.151-.002.301.03.44.09l-.072.248a.712.712 0 00-.368-.083.66.66 0 000 1.317c.135 0 .268-.03.39-.088l.044.24zm1.645 0c-.158.07-.33.105-.504.101a.833.833 0 01-.871-.895.89.89 0 01.94-.93c.153-.002.303.03.443.09l-.072.248a.73.73 0 00-.37-.083.661.661 0 000 1.317c.135 0 .269-.03.391-.088l.043.24zm.712-1.687v.739c0 .266 0 .453-.016.703.104-.213.165-.336.283-.533l.546-.906h.373v1.762h-.303v-.741c0-.285 0-.435.02-.717a6.483 6.483 0 01-.29.533c-.168.266-.357.607-.533.914h-.365V35.29l.285-.003zm2.084-.001v.738c0 .267 0 .453-.016.704.104-.213.165-.336.282-.533l.547-.906h.373v1.761h-.304v-.74c0-.286 0-.435.021-.718a6.835 6.835 0 01-.29.534c-.165.266-.357.607-.547.914h-.365v-1.751l.299-.003zm.208-.712c0 .155.085.267.232.267.146 0 .226-.117.245-.267h.23a.44.44 0 01-.483.448.42.42 0 01-.456-.448h.232zm2.828 2.4a1.2 1.2 0 01-.504.101.834.834 0 01-.871-.895.892.892 0 01.94-.93c.152-.002.302.03.44.09l-.072.248a.712.712 0 00-.367-.083.661.661 0 000 1.317c.134 0 .267-.03.389-.088l.045.24zm.743-1.687v.76h.075l.66-.76h.387l-.765.8c.283.03.453.218.592.533.052.146.114.289.187.426h-.336a2.672 2.672 0 01-.163-.357.57.57 0 00-.578-.413h-.059v.776h-.32V35.3l.32-.013zm1.807 0v.739c0 .266 0 .453-.02.703h.014c.104-.213.166-.336.28-.533l.533-.906h.373v1.762H40v-.741c0-.285 0-.435.02-.717a7.09 7.09 0 01-.287.533c-.168.266-.36.607-.533.914h-.368V35.29l.29-.003zm2.072-.001v.738c0 .267 0 .453-.018.704a8.33 8.33 0 01.282-.533l.533-.906h.39v1.761h-.304v-.74c0-.286 0-.435.021-.718a7.107 7.107 0 01-.288.534c-.168.266-.36.607-.533.914h-.368v-1.751l.285-.003zm.208-.712c0 .155.086.267.23.267.143 0 .229-.117.247-.267h.235a.437.437 0 01-.48.448.42.42 0 01-.456-.448h.224zm-16.392 4.343v.267h-.533v1.5h-.328v-1.527h-.533v-.266l1.394.026zm.547.922a.561.561 0 00.6.608 1.15 1.15 0 00.485-.091l.054.227a1.371 1.371 0 01-.581.109.798.798 0 01-.861-.882c0-.534.309-.947.82-.947.571 0 .723.504.723.827a.98.98 0 010 .149h-1.24zm.933-.23a.453.453 0 00-.442-.517.533.533 0 00-.488.518h.93zm.962-.691l.251.379a4.2 4.2 0 01.176.285c.059-.107.117-.195.176-.29l.245-.374h.344l-.597.848.616.906H28.3l-.266-.395c-.07-.1-.128-.2-.19-.303-.056.104-.12.197-.184.303l-.266.395h-.352l.624-.896-.576-.858h.362zm1.917 0v.706h.83v-.706h.315v1.754h-.314v-.8h-.832v.8h-.314v-1.754h.314zm3.333.849a.854.854 0 01-.872.93.833.833 0 01-.84-.903.856.856 0 01.87-.93.833.833 0 01.842.903zm-1.389.016c0 .384.221.674.533.674.312 0 .533-.285.533-.68 0-.298-.146-.674-.533-.674-.386 0-.533.347-.533.68zm3.175-.865v1.754h-.315v-1.503h-.589v.455c0 .493-.048.821-.266.97a.517.517 0 01-.35.11l-.032-.25a.376.376 0 00.174-.073c.162-.12.181-.365.181-.757v-.706h1.197zm2.189.849a.859.859 0 01-.874.93.836.836 0 01-.84-.903.856.856 0 01.87-.93.832.832 0 01.844.903zm-1.391.016c0 .384.221.674.533.674.312 0 .533-.285.533-.68 0-.298-.15-.674-.533-.674-.384 0-.533.347-.533.68zm2.94-.865v.267h-.76v1.495h-.315v-1.762h1.075zm.69 0v.738c0 .28 0 .453-.019.704h.019c.104-.213.165-.336.267-.533l.549-.906h.37v1.754H39.8v-.744c0-.285 0-.435.022-.717a6.613 6.613 0 01-.288.533c-.168.267-.36.608-.547.917h-.365v-1.746h.296zm2.031 0v.576c0 .221.083.373.362.373a.654.654 0 00.376-.123v-.826h.315v1.754h-.315v-.704a.923.923 0 01-.474.133.517.517 0 01-.576-.57v-.613h.312zm1.832.921a.564.564 0 00.602.608c.166.005.332-.026.485-.091l.053.227a1.371 1.371 0 01-.58.109.813.813 0 01-.864-.882c0-.534.312-.947.823-.947.57 0 .723.504.723.827.004.05.004.1 0 .149H42.78zm.935-.23a.453.453 0 00-.442-.517.533.533 0 00-.488.518h.93zm2.053.981a1.14 1.14 0 01-.503.102.83.83 0 01-.872-.893.89.89 0 01.94-.93c.153-.003.304.028.443.09l-.072.245a.76.76 0 00-.37-.082.66.66 0 000 1.317.91.91 0 00.392-.086l.042.238zm.738-1.672v.762h.077l.659-.762h.386l-.762.8c.282.029.453.215.589.533.054.147.117.29.19.429h-.334a2.176 2.176 0 01-.163-.36.57.57 0 00-.58-.413h-.062v.773h-.315v-1.762h.315zm1.812 0v.738c0 .28 0 .453-.018.704.104-.213.165-.336.282-.533l.533-.906h.374v1.754h-.304v-.744c0-.285 0-.435.021-.717-.112.226-.19.365-.29.533-.166.267-.358.608-.547.917h-.365v-1.746h.314zm2.075-.001v.738c0 .28 0 .453-.019.704.104-.213.165-.336.282-.533l.534-.907h.373v1.754h-.304v-.743c0-.285 0-.435.021-.717a6.767 6.767 0 01-.29.533c-.166.266-.357.607-.547.917h-.365v-1.746h.315zm.205-.712c0 .155.088.267.232.267.144 0 .226-.115.245-.267h.23a.44.44 0 01-.483.448.423.423 0 01-.456-.448h.232zm-26.653 4.318l.383 1.035c.04.117.083.266.112.357.035-.104.07-.237.115-.365l.346-1.027h.342l-.477 1.248c-.23.602-.384.909-.6 1.098a.872.872 0 01-.392.205l-.08-.266a.983.983 0 00.533-.512.21.21 0 00.027-.075.264.264 0 00-.024-.085l-.648-1.613h.363zm1.991 0v.704h.831v-.704h.315v1.752h-.315v-.8h-.831v.8h-.315v-1.752h.315zm2.029 0v.738c0 .267 0 .453-.018.701.106-.216.168-.338.282-.533l.533-.903h.373v1.75h-.303v-.74c0-.288 0-.435.02-.717a6.483 6.483 0 01-.29.533c-.165.267-.357.61-.533.917h-.365v-1.751l.301.005zm1.773.021c.185-.027.371-.04.557-.04.294 0 .779.048.779.437a.41.41 0 01-.366.395c.267.037.446.18.446.434 0 .458-.579.517-.923.517-.194 0-.397-.013-.493-.021v-1.722zm.302 1.52c.088.01.177.016.266.015.213 0 .533-.05.533-.304 0-.253-.266-.309-.557-.309h-.232l-.01.597zm0-.8h.24c.234 0 .476-.067.476-.267s-.151-.267-.469-.267c-.082 0-.165.005-.247.014v.52zm1.779.183a.562.562 0 00.602.608c.166.005.332-.026.485-.09l.053.229a1.418 1.418 0 01-.583.11.816.816 0 01-.861-.886c0-.533.312-.943.82-.943.574 0 .726.5.726.823.002.05.002.1 0 .15h-1.242zm.935-.229a.457.457 0 00-.442-.517.533.533 0 00-.488.517h.93zm.77-.125c0-.223 0-.405-.016-.57h.285l.016.299a.685.685 0 01.621-.339c.424 0 .744.357.744.89 0 .63-.384.941-.8.941a.622.622 0 01-.533-.266v.951h-.315l-.002-1.906zm.314.467a.664.664 0 000 .13.492.492 0 00.477.374c.339 0 .534-.267.534-.677 0-.35-.184-.65-.52-.65a.507.507 0 00-.483.394.516.516 0 00-.021.13l.013.299zm3.094.65a1.19 1.19 0 01-.503.102.833.833 0 01-.872-.896.89.89 0 01.941-.93 1.1 1.1 0 01.442.09l-.074.246a.738.738 0 00-.368-.083.608.608 0 00-.618.664.601.601 0 00.607.656c.135 0 .268-.03.39-.088l.055.24zm.721-1.687v.738c0 .267 0 .453-.019.701.107-.216.168-.338.283-.533l.546-.903h.373v1.75h-.304v-.74c0-.288 0-.435.022-.717a7.05 7.05 0 01-.288.533c-.168.267-.36.61-.547.917h-.367v-1.751l.3.005zm2.983 0v.254h-.533v1.498h-.314v-1.498h-.547v-.254h1.394zm.546.924a.562.562 0 00.602.608c.167.005.332-.026.486-.09l.053.229a1.414 1.414 0 01-.581.11.816.816 0 01-.864-.886c0-.533.312-.943.824-.943.57 0 .722.5.722.823.004.05.004.1 0 .15h-1.242zm.936-.229a.453.453 0 00-.443-.517.533.533 0 00-.488.517h.93zm1.981-.695v.254h-.547v1.498h-.314v-1.498h-.547v-.254H44.1z"/><path d="M34.186 23.955v9.098H32.32v-5.625c0-.14.016-.285.032-.431l-2.415 4.678a.781.781 0 01-.304.33.845.845 0 01-.435.112h-.287a.826.826 0 01-.432-.112.781.781 0 01-.304-.33l-2.418-4.692c0 .15.024.299.032.44.008.142 0 .267 0 .397v5.233h-1.866v-9.098h1.84a.626.626 0 01.183.038.41.41 0 01.147.098.652.652 0 01.128.184l2.343 4.614c.083.16.163.323.24.493.077.171.152.347.221.534.072-.184.147-.363.221-.534.075-.17.16-.34.248-.5l2.335-4.596a.782.782 0 01.128-.184.43.43 0 01.147-.099.658.658 0 01.187-.037h.24l1.655-.01zm9.72 0v9.098h-2.131v-5.094c0-.237 0-.488.023-.754.024-.267.043-.533.083-.845a6.824 6.824 0 01-.642 1.335l-2.767 4.729a1.728 1.728 0 01-.381.429c-.083.06-.172.109-.267.146a.748.748 0 01-.288.056h-1.599v-9.1h2.132v5.1c0 .237 0 .49-.018.754a7.169 7.169 0 01-.088.845 6.233 6.233 0 01.661-1.333l2.767-4.729c.049-.079.104-.153.165-.223.065-.075.137-.143.216-.203.08-.062.17-.111.266-.147a.748.748 0 01.288-.056l1.58-.008zm8.435 1.8a2.433 2.433 0 00-.659-.944 3.2 3.2 0 00-1.135-.63 5.31 5.31 0 00-1.653-.226h-3.212v9.098h2.111v-3.039h1.101a5.234 5.234 0 001.634-.23c.42-.128.808-.345 1.138-.633.298-.267.528-.6.67-.974.15-.399.223-.823.218-1.25.003-.4-.07-.798-.213-1.172zm-2.26 2.273c-.243.267-.638.392-1.187.392h-1.1v-2.884h1.1c.234-.005.467.028.69.099a1.3 1.3 0 01.48.285c.128.123.225.273.286.44.063.182.095.374.093.567.025.4-.105.794-.363 1.101zm3.035-2.972a3.773 3.773 0 011.306-.872 4.785 4.785 0 011.818-.34 4.797 4.797 0 011.842.343 4.21 4.21 0 011.437.962c.406.424.722.924.93 1.472.226.596.338 1.229.33 1.866a5.397 5.397 0 01-.306 1.85 4.264 4.264 0 01-.877 1.474 4 4 0 01-1.391.975 4.684 4.684 0 01-1.866.352 4.84 4.84 0 01-1.962-.352A3.491 3.491 0 0153 31.704l.837-.882a.452.452 0 01.144-.096.438.438 0 01.15-.03c.062 0 .124.014.18.043a.73.73 0 01.163.101c.115.101.239.19.37.267.121.075.251.134.387.176.144.045.29.076.44.093.177.02.355.03.533.03.28.001.556-.048.819-.144.257-.096.494-.24.698-.424.217-.2.397-.435.533-.696a3.1 3.1 0 00.304-.949h-3.865v-1.498h3.86a3.247 3.247 0 00-.3-.896 2.307 2.307 0 00-.498-.658 2.01 2.01 0 00-.677-.405 2.398 2.398 0 00-.834-.147 2.61 2.61 0 00-.8.104 2.959 2.959 0 00-.517.224 4.404 4.404 0 00-.357.224.534.534 0 01-.314.104.426.426 0 01-.267-.072 1.02 1.02 0 01-.163-.16l-.709-.957zm13.36-1.111h-2.162l-3.52 9.108h1.65a.695.695 0 00.439-.141.77.77 0 00.245-.315l.533-1.6h3.465l.534 1.6c.058.13.15.244.266.328.13.09.287.135.445.128h1.637l-3.532-9.108zm-2.322 5.643l.835-2.482a9.361 9.361 0 00.4-1.266 14.753 14.753 0 00.413 1.255l.837 2.493h-2.484zm-43.05 12.306a19.922 19.922 0 01.887-39.826 19.922 19.922 0 0119.904 19.038.933.933 0 00.932.885h1.155A21.991 21.991 0 1021.99 43.98v-1.154a.93.93 0 00-.888-.932zm.713-31.957a12.054 12.054 0 10.174 24.107v-1.172a.936.936 0 00-.866-.93A9.989 9.989 0 1131.94 21.124a.936.936 0 00.93.866h1.173A12.052 12.052 0 0021.818 9.937zm.174-4.974a17.028 17.028 0 100 34.055v-1.167a.933.933 0 00-.88-.93 14.958 14.958 0 1115.815-15.813.93.93 0 00.925.883h1.162A17.027 17.027 0 0021.991 4.963z"/></g><defs><clipPath id="clip0_209_33240"><path fill="#fff" d="M0 0h70v45.074H0z"/></clipPath></defs></svg>