<svg width="100" height="64" fill="none" xmlns="http://www.w3.org/2000/svg"><g clip-path="url(#clip0_148_21701)" fill="#886FF6"><path d="M34.055 48.976c.285-.047.575-.07.864-.068.35-.026.699.076.979.287a.935.935 0 01.304.724 1.002 1.002 0 01-.27.754 1.434 1.434 0 01-1.062.377 1.787 1.787 0 01-.381-.03v1.383h-.434v-3.427zm.449 1.663c.125.029.253.041.38.037.545 0 .877-.263.877-.754 0-.49-.328-.674-.823-.674a2.082 2.082 0 00-.426.034l-.008 1.357zm4.563.485a1.198 1.198 0 01-.326.933 1.223 1.223 0 01-.92.383 1.197 1.197 0 01-.884-.374 1.174 1.174 0 01-.315-.9 1.2 1.2 0 01.324-.932 1.222 1.222 0 01.917-.384 1.196 1.196 0 01.889.371 1.17 1.17 0 01.315.903zm-1.984.026c0 .543.316.954.761.954.446 0 .762-.407.762-.965 0-.418-.21-.95-.762-.95s-.761.49-.761.962zm4.483 1.143a1.728 1.728 0 01-.72.143 1.204 1.204 0 01-.91-.356 1.18 1.18 0 01-.335-.91 1.248 1.248 0 01.376-.955 1.274 1.274 0 01.968-.361c.216-.002.43.041.629.128l-.103.35a1.025 1.025 0 00-.526-.116.948.948 0 00-.612.3.93.93 0 000 1.262.948.948 0 00.612.3c.193 0 .383-.042.556-.125l.065.34zm2.351 0c-.226.1-.472.148-.72.143a1.204 1.204 0 01-.91-.356 1.177 1.177 0 01-.334-.91 1.246 1.246 0 01.376-.955 1.274 1.274 0 01.968-.361 1.56 1.56 0 01.632.128l-.103.35a1.052 1.052 0 00-.53-.116.948.948 0 00-.612.3.93.93 0 000 1.262c.16.172.378.279.613.3a1.3 1.3 0 00.56-.125l.06.34zm1.018-2.387v1.044c0 .377 0 .641-.023.996.148-.302.236-.475.404-.754l.78-1.282h.533v2.492h-.434v-1.048c0-.404 0-.615.03-1.014a9.92 9.92 0 01-.414.754c-.24.377-.51.86-.762 1.293h-.522V49.91l.408-.004zm2.972.001v1.044c0 .377 0 .641-.023.995.149-.301.236-.474.404-.753l.78-1.282h.534v2.492h-.435v-1.048c0-.404 0-.615.03-1.014-.16.316-.27.516-.414.753-.236.377-.51.86-.78 1.294h-.523V49.91l.427-.004zm.297-1.007c0 .219.122.377.331.377.21 0 .324-.166.35-.377h.328a.617.617 0 01-.427.604.632.632 0 01-.262.03.606.606 0 01-.613-.382.59.59 0 01-.038-.252h.331zm4.046 3.393a1.728 1.728 0 01-.72.143 1.204 1.204 0 01-.911-.356 1.18 1.18 0 01-.334-.91 1.248 1.248 0 01.376-.955 1.274 1.274 0 01.968-.361c.216-.002.43.041.628.128l-.103.35a1.025 1.025 0 00-.525-.116.948.948 0 00-.613.3.93.93 0 000 1.262c.16.172.378.279.613.3.192 0 .382-.042.556-.125l.064.34zm1.062-2.387v1.075h.107l.944-1.075h.553l-1.093 1.131c.403.042.647.31.845.754.074.207.163.409.267.603h-.48a3.744 3.744 0 01-.233-.505.82.82 0 00-.826-.584h-.084v1.097h-.456v-2.477l.456-.019zm2.576 0v1.044c0 .377 0 .641-.027.996h.02c.148-.302.235-.475.399-.754l.761-1.282h.534v2.492h-.434v-1.048c0-.404 0-.615.03-1.014-.16.316-.267.516-.411.754-.24.377-.514.86-.762 1.293h-.525V49.91l.415-.004zm2.965.001v1.044c0 .377 0 .641-.027.995.152-.301.24-.474.404-.753l.761-1.282h.556v2.492h-.434v-1.048c0-.404 0-.615.03-1.014-.16.316-.266.516-.41.753-.24.377-.515.86-.762 1.294h-.526V49.91l.408-.004zm.297-1.007c0 .219.122.377.327.377.206 0 .328-.166.354-.377h.335a.612.612 0 01-.198.47.626.626 0 01-.487.164.607.607 0 01-.613-.382.59.59 0 01-.038-.252h.32zm-23.42 6.142v.377h-.762v2.122H34.5v-2.16h-.762v-.377l1.992.038zm.785 1.305a.786.786 0 00.516.811c.109.04.225.057.34.048a1.65 1.65 0 00.694-.128l.076.32a1.968 1.968 0 01-.83.155 1.153 1.153 0 01-.912-.337 1.129 1.129 0 01-.318-.91c0-.755.441-1.34 1.173-1.34.815 0 1.032.713 1.032 1.17.005.07.005.14 0 .21h-1.771zm1.333-.325a.634.634 0 00-.367-.67.653.653 0 00-.266-.061.764.764 0 00-.489.234.75.75 0 00-.207.497h1.329zm1.375-.981l.358.535c.091.136.171.264.251.404.084-.151.168-.275.252-.411l.35-.528h.491l-.853 1.199.88 1.282h-.518l-.38-.558a7.365 7.365 0 01-.271-.43c-.08.147-.172.279-.263.43l-.38.558h-.503l.89-1.267-.822-1.214h.518zm2.734 0v1h1.188v-1h.45v2.48h-.45v-1.13h-1.188v1.13h-.45v-2.48h.45zm4.758 1.202a1.2 1.2 0 01-.326.933 1.223 1.223 0 01-.92.383 1.202 1.202 0 01-.884-.377 1.177 1.177 0 01-.315-.901 1.198 1.198 0 01.325-.932 1.223 1.223 0 01.917-.384 1.196 1.196 0 01.888.374 1.174 1.174 0 01.315.904zm-1.984.023c0 .543.316.953.762.953.445 0 .761-.403.761-.96 0-.423-.21-.955-.761-.955-.553 0-.762.49-.762.962zm4.539-1.225v2.48h-.448v-2.126h-.842v.645c0 .697-.069 1.161-.38 1.372a.744.744 0 01-.5.155l-.045-.355a.54.54 0 00.247-.101c.233-.17.26-.517.26-1.07v-1h1.709zm3.128 1.202a1.201 1.201 0 01-.328.933 1.226 1.226 0 01-.92.383 1.206 1.206 0 01-.884-.378 1.182 1.182 0 01-.316-.9 1.198 1.198 0 01.324-.932 1.222 1.222 0 01.917-.384 1.198 1.198 0 01.892.373 1.174 1.174 0 01.316.905zm-1.987.023c0 .543.316.953.761.953.446 0 .762-.403.762-.96 0-.423-.213-.955-.762-.955-.548 0-.761.49-.761.962zm4.198-1.225v.377h-1.085v2.115h-.45v-2.492h1.535zm.986 0v1.044c0 .396 0 .641-.027.996h.027c.148-.302.236-.476.38-.754l.785-1.282h.53v2.48h-.435v-1.051c0-.404 0-.615.03-1.014-.16.32-.266.516-.41.754-.24.377-.515.859-.781 1.296h-.522v-2.469h.423zm2.902 0v.814c0 .313.118.528.518.528a.94.94 0 00.537-.173v-1.17H60v2.48h-.45v-.995a1.328 1.328 0 01-.677.189.745.745 0 01-.785-.483.724.724 0 01-.038-.324v-.867h.446zm2.617 1.306a.788.788 0 00.23.626.805.805 0 00.63.233c.239.007.475-.037.694-.128l.076.32a1.968 1.968 0 01-.83.155 1.172 1.172 0 01-.907-.343 1.148 1.148 0 01-.327-.905c0-.754.446-1.338 1.177-1.338.815 0 1.032.712 1.032 1.169.005.07.005.14 0 .21h-1.775zm1.337-.325a.636.636 0 00-.366-.67.653.653 0 00-.266-.061.764.764 0 00-.49.234.75.75 0 00-.207.497h1.329zm2.931 1.386c-.226.102-.472.15-.72.143a1.198 1.198 0 01-.91-.353 1.175 1.175 0 01-.335-.91 1.248 1.248 0 01.377-.954 1.274 1.274 0 01.968-.361c.217-.004.433.04.632.128l-.103.347a1.094 1.094 0 00-.53-.117.948.948 0 00-.612.3.93.93 0 000 1.262c.16.172.378.28.613.3.193.002.384-.04.56-.12l.06.335zm1.056-2.367v1.078h.11l.94-1.078h.553l-1.09 1.131c.404.042.648.305.842.754.077.208.168.41.27.607h-.475a3.058 3.058 0 01-.233-.509.807.807 0 00-.311-.436.82.82 0 00-.519-.148h-.087v1.093h-.45v-2.492h.45zm2.59 0v1.044c0 .396 0 .641-.027.996.148-.302.236-.476.403-.754l.762-1.282h.533v2.48h-.434v-1.051c0-.404 0-.615.03-1.014-.16.32-.27.516-.415.754-.236.377-.51.859-.78 1.296h-.522v-2.469h.45zm2.96.001v1.044c0 .396 0 .64-.026.995.148-.301.236-.475.403-.754l.762-1.282h.533v2.481h-.434v-1.052c0-.403 0-.614.03-1.014-.16.32-.27.517-.415.754-.236.377-.51.86-.78 1.297h-.522v-2.47h.45zm.294-1.007c0 .219.125.377.33.377.207 0 .325-.162.351-.377h.328a.618.618 0 01-.428.604.634.634 0 01-.261.03.61.61 0 01-.612-.383.596.596 0 01-.04-.25h.332zm-38.077 6.108l.549 1.462c.057.166.118.377.16.506.05-.147.099-.336.163-.517l.495-1.451h.488l-.682 1.764c-.327.852-.548 1.286-.857 1.553a1.249 1.249 0 01-.56.29l-.114-.377a1.39 1.39 0 00.762-.724.296.296 0 00.038-.105.371.371 0 00-.034-.12l-.925-2.281h.517zm2.845 0v.995h1.189v-.995h.45v2.476h-.45v-1.13h-1.188v1.13h-.45v-2.476h.45zm2.9-.001v1.045c0 .377 0 .64-.027.991.152-.305.24-.479.404-.754l.761-1.278h.533v2.477h-.434v-1.048c0-.407 0-.615.03-1.014a9.94 9.94 0 01-.414.754c-.236.377-.51.863-.762 1.297h-.521v-2.477l.43.007zm2.53.03c.264-.038.53-.057.796-.057.42 0 1.112.068 1.112.618a.577.577 0 01-.155.376.589.589 0 01-.366.182c.38.053.636.257.636.615 0 .648-.827.731-1.318.731-.278 0-.567-.019-.705-.03v-2.435zm.43 2.149c.127.016.254.023.382.022.304 0 .761-.071.761-.43 0-.358-.38-.437-.796-.437h-.331l-.015.845zm0-1.131h.344c.335 0 .681-.095.681-.377 0-.283-.217-.377-.67-.377-.118 0-.237.005-.354.019v.735zm2.544.26a.788.788 0 00.23.627.803.803 0 00.63.233c.238.007.475-.037.694-.128l.076.324a2.02 2.02 0 01-.834.154 1.177 1.177 0 01-.904-.347 1.153 1.153 0 01-.326-.904c0-.754.445-1.335 1.173-1.335.819 0 1.036.709 1.036 1.165.003.07.003.14 0 .211h-1.775zm1.337-.324a.637.637 0 00-.15-.506.65.65 0 00-.482-.225.764.764 0 00-.49.234.75.75 0 00-.207.497h1.329zm1.103-.178c0-.316 0-.573-.023-.807h.407l.023.423a.974.974 0 01.888-.48c.605 0 1.062.506 1.062 1.26 0 .89-.548 1.33-1.142 1.33a.895.895 0 01-.762-.376v1.346h-.45l-.003-2.696zm.45.66a.92.92 0 000 .185c.037.15.125.284.249.38a.71.71 0 00.432.148c.483 0 .761-.377.761-.958 0-.494-.262-.92-.742-.92a.728.728 0 00-.442.162.715.715 0 00-.247.396.724.724 0 00-.03.185l.018.422zm4.413.922a1.724 1.724 0 01-.72.142 1.2 1.2 0 01-.91-.355 1.178 1.178 0 01-.335-.911 1.248 1.248 0 01.377-.954 1.274 1.274 0 01.968-.362 1.58 1.58 0 01.632.128l-.107.347a1.063 1.063 0 00-.525-.117.875.875 0 00-.655.274.86.86 0 00-.229.665.842.842 0 00.517.86.86.86 0 00.351.067c.193.001.383-.041.556-.124l.08.34zm1.029-2.388v1.045c0 .377 0 .64-.027.991.152-.305.24-.479.404-.754l.78-1.278h.534v2.477h-.435v-1.048c0-.407 0-.615.03-1.014-.16.316-.266.516-.41.754-.24.377-.514.863-.781 1.297h-.526v-2.477l.43.007zm4.264.001v.358h-.761v2.118h-.45v-2.118h-.78v-.358h1.991zm.783 1.307a.79.79 0 00.52.812.81.81 0 00.34.048 1.67 1.67 0 00.694-.128l.076.324a2.035 2.035 0 01-.83.154 1.177 1.177 0 01-.907-.345 1.154 1.154 0 01-.327-.906c0-.754.445-1.335 1.177-1.335.815 0 1.032.709 1.032 1.165.005.07.005.141 0 .211h-1.775zm1.337-.324a.635.635 0 00-.367-.67.652.652 0 00-.265-.061.764.764 0 00-.49.234.75.75 0 00-.207.497h1.329zm2.829-.983v.358h-.78v2.118h-.45v-2.118h-.78v-.358h2.01z"/><path d="M48.837 33.88v12.867H46.17v-7.954c0-.2.023-.404.046-.61l-3.45 6.615a1.11 1.11 0 01-.434.468 1.216 1.216 0 01-.62.158H41.3c-.217.005-.43-.05-.617-.158a1.109 1.109 0 01-.434-.468l-3.454-6.635c0 .211.034.423.046.622.011.2 0 .377 0 .562v7.4h-2.666V33.882h2.628a.9.9 0 01.262.052c.08.031.151.079.21.14a.92.92 0 01.183.26l3.347 6.526a12.569 12.569 0 01.659 1.451c.102-.26.209-.513.316-.754.106-.241.228-.482.354-.709l3.336-6.499c.048-.095.109-.182.182-.26.06-.06.13-.108.21-.14a.955.955 0 01.266-.052h.343l2.365-.015zm13.887 0v12.867h-3.046v-7.204c0-.335 0-.69.034-1.067s.061-.754.118-1.195a9.653 9.653 0 01-.918 1.889l-3.952 6.688a2.58 2.58 0 01-.236.317 2.043 2.043 0 01-.309.29 1.754 1.754 0 01-.38.207c-.131.053-.27.08-.412.08H51.34V33.88h3.046v7.212c0 .335 0 .693-.027 1.066-.018.4-.06.8-.125 1.196a8.802 8.802 0 01.944-1.885l3.953-6.688a2.35 2.35 0 01.236-.317c.092-.106.195-.202.308-.287.116-.087.244-.157.38-.207.131-.053.271-.08.412-.08l2.258-.01zm12.048 2.545a3.442 3.442 0 00-.94-1.334 4.584 4.584 0 00-1.622-.89 7.66 7.66 0 00-2.361-.32H65.26v12.867h3.016V42.45h1.573a7.544 7.544 0 002.334-.325 4.48 4.48 0 001.626-.897c.425-.376.753-.848.956-1.376.214-.565.32-1.164.312-1.768a4.483 4.483 0 00-.305-1.659zm-3.229 3.216c-.346.377-.91.554-1.694.554h-1.573v-4.079h1.573c.334-.007.667.04.986.14.255.083.49.221.686.403.181.174.32.387.407.622.091.258.136.53.133.803a2.195 2.195 0 01-.518 1.557zm4.338-4.203a5.515 5.515 0 011.865-1.233c.393-.156.8-.274 1.215-.355a7.376 7.376 0 011.383-.128 6.92 6.92 0 012.63.487 5.995 5.995 0 012.053 1.36 6.17 6.17 0 011.33 2.082c.321.842.481 1.737.471 2.639a7.55 7.55 0 01-.438 2.616 6.02 6.02 0 01-1.252 2.085 5.713 5.713 0 01-1.988 1.38 6.749 6.749 0 01-2.666.497 6.977 6.977 0 01-2.802-.498 4.977 4.977 0 01-1.969-1.53l1.196-1.248a.65.65 0 01.205-.136.629.629 0 01.214-.041c.09-.001.178.02.258.06.084.038.162.086.233.143.163.143.34.27.53.377.171.107.357.19.551.25.205.062.415.107.629.131.252.029.507.043.761.042a3.36 3.36 0 001.17-.204c.367-.135.706-.339.997-.6.31-.28.568-.614.762-.983.216-.422.363-.875.434-1.342H78.13v-2.12h5.514a4.562 4.562 0 00-.426-1.266 3.267 3.267 0 00-.713-.931 2.876 2.876 0 00-.967-.573 3.458 3.458 0 00-1.192-.207 3.738 3.738 0 00-1.142.147 4.18 4.18 0 00-.739.316c-.202.117-.38.223-.51.317a.767.767 0 01-.45.147.614.614 0 01-.38-.102 1.458 1.458 0 01-.233-.226l-1.012-1.353zm19.085-1.572h-3.088l-5.03 12.882h2.356a1 1 0 00.629-.2c.154-.116.275-.269.35-.445l.762-2.262h4.95l.762 2.262c.083.185.215.345.38.463.187.128.41.192.636.181h2.338l-5.045-12.881zm-3.317 7.98l1.192-3.51a11.2 11.2 0 00.286-.791c.103-.31.198-.64.285-.999a20.813 20.813 0 00.59 1.776l1.196 3.525H91.65zM30.147 59.253a28.58 28.58 0 01-19.542-8.89 28.02 28.02 0 01-7.68-19.888 28.045 28.045 0 018.567-19.53 28.61 28.61 0 0119.923-8.019c7.33 0 14.377 2.8 19.674 7.815a28.054 28.054 0 018.76 19.11c.018.339.166.657.414.89.248.233.577.363.919.362h1.649a30.883 30.883 0 00-5.295-17.28A31.35 31.35 0 0043.438 2.369 31.71 31.71 0 0025.287.598 31.515 31.515 0 009.2 9.11 31.007 31.007 0 00.604 25.034a30.814 30.814 0 001.787 17.97 31.172 31.172 0 0011.571 13.959 31.64 31.64 0 0017.453 5.241v-1.632c.002-.34-.13-.666-.366-.912a1.335 1.335 0 00-.902-.408zm1.02-45.198a17.306 17.306 0 00-12.139 5.08 16.96 16.96 0 00-4.956 12.09 16.965 16.965 0 005.131 12.02 17.31 17.31 0 0012.212 4.906V46.49a1.316 1.316 0 00-.358-.898 1.342 1.342 0 00-.88-.418 14.351 14.351 0 01-7.444-2.863 14.136 14.136 0 01-4.724-6.375 13.993 13.993 0 01-.524-7.89 14.086 14.086 0 013.842-6.933 14.31 14.31 0 017.002-3.803 14.404 14.404 0 017.97.518 14.26 14.26 0 016.44 4.677 14.046 14.046 0 012.891 7.37c.025.333.176.644.422.871.247.227.57.354.907.355h1.676c0-2.26-.453-4.496-1.334-6.58a17.04 17.04 0 00-3.797-5.562 17.235 17.235 0 00-5.67-3.679 17.372 17.372 0 00-6.666-1.227zm.248-7.034a24.45 24.45 0 00-17.2 7.053 23.961 23.961 0 00-7.125 17.03 23.962 23.962 0 007.125 17.028 24.45 24.45 0 0017.2 7.054v-1.652c0-.336-.13-.66-.364-.904a1.338 1.338 0 00-.892-.411 21.505 21.505 0 01-11.388-4.066 21.182 21.182 0 01-7.33-9.539 20.958 20.958 0 01-.918-11.95 21.097 21.097 0 015.785-10.527 21.434 21.434 0 0110.635-5.726 21.574 21.574 0 0112.07.912 21.349 21.349 0 019.633 7.258 21.025 21.025 0 014.105 11.274c.018.336.164.652.41.884.246.233.572.363.912.364h1.66c0-6.386-2.562-12.51-7.122-17.026A24.45 24.45 0 0031.415 7.02z"/></g><defs><clipPath id="clip0_148_21701"><path fill="#fff" d="M0 0h100v63.75H0z"/></clipPath></defs></svg>