<svg width="77" height="100" fill="none" xmlns="http://www.w3.org/2000/svg"><path d="M77 100H0v-9.524c0-6.314 2.535-12.37 7.048-16.836a24.193 24.193 0 0117.014-6.973h28.875a24.193 24.193 0 0117.015 6.973A23.683 23.683 0 0177 90.476V100zM38.5 57.143c-3.792 0-7.547-.74-11.05-2.175a28.898 28.898 0 01-9.368-6.194 28.553 28.553 0 01-6.259-9.269 28.31 28.31 0 01-2.198-10.934c0-3.752.747-7.467 2.198-10.933a28.554 28.554 0 016.26-9.27 28.897 28.897 0 019.367-6.193A29.142 29.142 0 0138.5 0c7.658 0 15.003 3.01 20.418 8.368 5.415 5.359 8.457 12.626 8.457 20.203 0 7.578-3.042 14.845-8.457 20.204-5.415 5.358-12.76 8.368-20.418 8.368z" fill="#7687EE"/></svg>