<svg width="22" height="23" fill="none" xmlns="http://www.w3.org/2000/svg"><path d="M1.955 13.382a9.113 9.113 0 010-2.988c1.01.024 1.918-.46 2.27-1.312.354-.852.054-1.837-.677-2.533A9.113 9.113 0 015.66 4.435c.697.731 1.682 1.031 2.534.678.853-.353 1.336-1.261 1.31-2.27a9.098 9.098 0 012.991 0c-.025 1.01.46 1.917 1.31 2.27.853.353 1.838.053 2.534-.678a9.112 9.112 0 012.114 2.114c-.731.696-1.03 1.68-.678 2.533.353.853 1.261 1.336 2.27 1.311.165.99.165 2 0 2.99-1.01-.024-1.917.46-2.27 1.311-.353.852-.053 1.837.678 2.533a9.114 9.114 0 01-2.113 2.115c-.697-.732-1.682-1.032-2.534-.679-.853.353-1.336 1.262-1.31 2.27a9.098 9.098 0 01-2.991 0c.025-1.01-.46-1.917-1.31-2.27-.853-.353-1.838-.053-2.534.679a9.115 9.115 0 01-2.114-2.114c.731-.697 1.03-1.682.678-2.534-.353-.853-1.261-1.336-2.27-1.31v-.002zm9.046 1.256a2.75 2.75 0 100-5.5 2.75 2.75 0 000 5.5z" fill="#7687EE"/></svg>