<svg width="14" height="14" fill="none" xmlns="http://www.w3.org/2000/svg"><path clip-rule="evenodd" d="M.582 7s2.333-4.666 6.417-4.666c4.083 0 6.416 4.667 6.416 4.667S11.082 11.667 7 11.667c-4.084 0-6.417-4.666-6.417-4.666z" stroke="#000" stroke-linecap="round" stroke-linejoin="round"/><path clip-rule="evenodd" d="M.582 7s2.333-4.666 6.417-4.666c4.083 0 6.416 4.667 6.416 4.667S11.082 11.667 7 11.667c-4.084 0-6.417-4.666-6.417-4.666z" stroke="#7687EE" stroke-opacity=".3" stroke-linecap="round" stroke-linejoin="round"/><path clip-rule="evenodd" d="M.582 7s2.333-4.666 6.417-4.666c4.083 0 6.416 4.667 6.416 4.667S11.082 11.667 7 11.667c-4.084 0-6.417-4.666-6.417-4.666z" stroke="#fff" stroke-opacity=".35" stroke-linecap="round" stroke-linejoin="round"/><path clip-rule="evenodd" d="M7 8.75a1.75 1.75 0 100-3.5 1.75 1.75 0 000 3.5z" stroke="#000" stroke-linecap="round" stroke-linejoin="round"/><path clip-rule="evenodd" d="M7 8.75a1.75 1.75 0 100-3.5 1.75 1.75 0 000 3.5z" stroke="#7687EE" stroke-opacity=".3" stroke-linecap="round" stroke-linejoin="round"/><path clip-rule="evenodd" d="M7 8.75a1.75 1.75 0 100-3.5 1.75 1.75 0 000 3.5z" stroke="#fff" stroke-opacity=".35" stroke-linecap="round" stroke-linejoin="round"/></svg>