<svg width="14" height="14" fill="none" xmlns="http://www.w3.org/2000/svg"><path clip-rule="evenodd" d="M12.25 8.75c0 .644-.522 1.167-1.167 1.167h-7L1.75 12.25V2.917c0-.645.522-1.167 1.167-1.167h8.166c.645 0 1.167.522 1.167 1.167V8.75z" stroke="#000" stroke-linecap="round" stroke-linejoin="round"/><path clip-rule="evenodd" d="M12.25 8.75c0 .644-.522 1.167-1.167 1.167h-7L1.75 12.25V2.917c0-.645.522-1.167 1.167-1.167h8.166c.645 0 1.167.522 1.167 1.167V8.75z" stroke="#7687EE" stroke-opacity=".3" stroke-linecap="round" stroke-linejoin="round"/><path clip-rule="evenodd" d="M12.25 8.75c0 .644-.522 1.167-1.167 1.167h-7L1.75 12.25V2.917c0-.645.522-1.167 1.167-1.167h8.166c.645 0 1.167.522 1.167 1.167V8.75z" stroke="#fff" stroke-opacity=".35" stroke-linecap="round" stroke-linejoin="round"/></svg>