<svg width="14" height="14" fill="none" xmlns="http://www.w3.org/2000/svg"><path clip-rule="evenodd" d="M12.156 2.688a3.208 3.208 0 00-4.539 0L7 3.307l-.618-.619a3.21 3.21 0 10-4.539 4.539l.619.618L7 12.383l4.538-4.538.619-.618a3.208 3.208 0 000-4.539z" stroke="#000" stroke-linecap="round" stroke-linejoin="round"/><path clip-rule="evenodd" d="M12.156 2.688a3.208 3.208 0 00-4.539 0L7 3.307l-.618-.619a3.21 3.21 0 10-4.539 4.539l.619.618L7 12.383l4.538-4.538.619-.618a3.208 3.208 0 000-4.539z" stroke="#7687EE" stroke-opacity=".3" stroke-linecap="round" stroke-linejoin="round"/><path clip-rule="evenodd" d="M12.156 2.688a3.208 3.208 0 00-4.539 0L7 3.307l-.618-.619a3.21 3.21 0 10-4.539 4.539l.619.618L7 12.383l4.538-4.538.619-.618a3.208 3.208 0 000-4.539z" stroke="#fff" stroke-opacity=".35" stroke-linecap="round" stroke-linejoin="round"/></svg>