<svg width="28" height="28" fill="none" xmlns="http://www.w3.org/2000/svg"><path fill-rule="evenodd" clip-rule="evenodd" d="M13.998 10.85a1.75 1.75 0 110-3.5 1.75 1.75 0 010 3.5zm-3.85-1.75a3.85 3.85 0 117.7 0 3.85 3.85 0 01-7.7 0zm-.7 10.15c0-.588.322-1.162 1.12-1.638a6.734 6.734 0 013.43-.812c1.442 0 2.632.322 3.43.812.798.476 1.12 1.05 1.12 1.638 0 .42-.14.616-.308.756-.196.154-.56.294-1.092.294h-6.3c-.546 0-.896-.14-1.092-.294-.168-.14-.308-.35-.308-.756zm4.55-4.55c-1.708 0-3.318.378-4.522 1.12-1.232.742-2.128 1.918-2.128 3.43 0 .98.392 1.82 1.092 2.394.672.546 1.54.756 2.408.756h6.3c.854 0 1.736-.21 2.408-.756.7-.56 1.092-1.4 1.092-2.394 0-1.512-.896-2.688-2.128-3.43-1.204-.742-2.8-1.12-4.522-1.12zm5.6-7.826c.084-.56.616-.98 1.19-.896a3.5 3.5 0 01-.49 6.972 1.05 1.05 0 010-2.1 1.4 1.4 0 00.196-2.786 1.05 1.05 0 01-.882-1.19h-.014zM22.062 14a1.05 1.05 0 000 2.1c1.624 0 2.45.938 2.45 1.75 0 .308-.098.574-.266.77-.14.168-.336.28-.644.28a1.05 1.05 0 000 2.1c2.002 0 3.01-1.694 3.01-3.15 0-2.394-2.24-3.85-4.55-3.85zM6.998 15.05A1.05 1.05 0 005.948 14c-2.296 0-4.55 1.456-4.55 3.85 0 1.456 1.008 3.15 3.01 3.15a1.05 1.05 0 100-2.1.798.798 0 01-.658-.28 1.21 1.21 0 01-.252-.77c0-.812.84-1.75 2.45-1.75.574 0 1.05-.476 1.05-1.05zm.196-9.058a1.05 1.05 0 01.308 2.072 1.4 1.4 0 00.196 2.786 1.05 1.05 0 110 2.1 3.5 3.5 0 01-.504-6.958z" fill="#FC9270"/></svg>