<svg width="28" height="28" fill="none" xmlns="http://www.w3.org/2000/svg"><path d="M16 11h-1a1 1 0 001 1v-1zm0-4h1-1zm-3-3V3a1 1 0 00-.914.594L13 4zm-4 9l-.914-.406A1 1 0 008 13h1zm0 11H8a1 1 0 001 1v-1zm11.28 0l.011-1h-.011v1zm2-1.7l-.988-.152v.002l.988.15zm1.38-9l.988.152v-.002l-.988-.15zm-2-2.3v1h.011l-.011-1zM9 24v1a1 1 0 001-1H9zm0-11h1a1 1 0 00-1-1v1zm8-2V7h-2v4h2zm0-4a4 4 0 00-4-4v2a2 2 0 012 2h2zm-4.914-3.406l-4 9 1.828.812 4-9-1.828-.812zM8 13v11h2V13H8zm1 12h11.28v-2H9v2zm11.269 0a3 3 0 003-2.55l-1.978-.3a1 1 0 01-1 .85l-.022 2zm3-2.548l1.38-9-1.977-.304-1.38 9 1.976.304zm1.38-9.002a3 3 0 00-.703-2.419l-1.509 1.313a1 1 0 01.234.806l1.978.3zm-.703-2.419a3 3 0 00-2.297-1.03L21.67 12a1 1 0 01.766.344l1.51-1.313zM21.66 10H16v2h5.66v-2zM9 23H6v2h3v-2zm-3 0a1 1 0 01-1-1H3a3 3 0 003 3v-2zm-1-1v-7H3v7h2zm0-7a1 1 0 011-1v-2a3 3 0 00-3 3h2zm1-1h3v-2H6v2zm2-1v11h2V13H8z" fill="#63E396"/></svg>