<svg width="22" height="23" fill="none" xmlns="http://www.w3.org/2000/svg"><path fill-rule="evenodd" clip-rule="evenodd" d="M9.244 4.392a1 1 0 01.912 1.08l-.297 3.5h2.652l.31-3.668a1 1 0 111.994.169l-.297 3.498h2.795a1 1 0 110 2h-2.964l-.22 2.584h3.184a1 1 0 110 2H13.96l-.31 3.668a1 1 0 01-1.993-.17l.296-3.498H9.301l-.31 3.668a1 1 0 01-1.993-.17l.296-3.498H4.5a1 1 0 110-2h2.964l.219-2.584H4.5a1 1 0 110-2h3.352l.31-3.667a1 1 0 011.082-.912zm2.879 9.163l.219-2.584H9.69l-.22 2.584h2.653z" fill="#7687EE"/></svg>