<svg width="20" height="20" fill="none" xmlns="http://www.w3.org/2000/svg"><path d="M11.43 7.857h-.5a.5.5 0 00.5.5v-.5zm0-2.857h.5-.5zM9.289 2.857v-.5a.5.5 0 00-.457.297l.457.203zM6.431 9.286l-.457-.203a.5.5 0 00-.043.203h.5zm0 7.857h-.5a.5.5 0 00.5.5v-.5zm8.057 0l.006-.5h-.006v.5zm1.428-1.214l-.494-.076.494.076zm.986-6.429l.494.076-.494-.076zm-1.428-1.643v.5h.005l-.005-.5zM6.43 17.143v.5a.5.5 0 00.5-.5h-.5zm0-7.857h.5a.5.5 0 00-.5-.5v.5zm5.5-1.429V5h-1v2.857h1zm0-2.857a2.643 2.643 0 00-2.643-2.643v1c.907 0 1.643.736 1.643 1.643h1zm-3.1-2.346L5.974 9.083l.914.406L9.745 3.06l-.914-.406zm-2.9 6.632v7.857h1V9.286h-1zm.5 8.357h8.057v-1H6.43v1zm8.051 0a1.929 1.929 0 001.929-1.64l-.989-.15a.929.929 0 01-.928.79l-.012 1zm1.929-1.638l.985-6.429-.988-.152-.986 6.43.989.15zm.986-6.43a1.929 1.929 0 00-.452-1.555l-.755.657c.18.205.259.479.218.748l.989.15zm-.452-1.555a1.928 1.928 0 00-1.477-.663l.011 1a.928.928 0 01.712.32l.754-.657zm-1.471-.663H11.43v1h4.043v-1zM6.43 16.643H4.288v1h2.143v-1zm-2.143 0a.929.929 0 01-.929-.928h-1c0 1.065.864 1.928 1.929 1.928v-1zm-.929-.928v-5h-1v5h1zm0-5a.93.93 0 01.929-.929v-1a1.929 1.929 0 00-1.929 1.929h1zm.929-.929H6.43v-1H4.288v1zm1.643-.5v7.857h1V9.286h-1z" fill="#63E396"/></svg>