<svg width="24" height="24" fill="none" xmlns="http://www.w3.org/2000/svg"><path d="M23 4v6h-6M1 20v-6h6" stroke="#fff" stroke-width="2" stroke-linecap="round" stroke-linejoin="round"/><path d="M2.567 8.666a1 1 0 001.885.668l-1.885-.668zM18.36 5.64l-.707.707.022.022.685-.729zm3.955 5.089a1 1 0 001.37-1.458l-1.37 1.458zM1.685 13.27a1 1 0 00-1.37 1.458l1.37-1.458zm3.955 5.09l.707-.707a1.082 1.082 0 00-.022-.022l-.685.729zm15.793-3.026a1 1 0 10-1.886-.668l1.886.668zm-16.98-6A8 8 0 0110.228 4.2l-.442-1.951a10 10 0 00-7.22 6.417l1.885.668zM10.228 4.2a8 8 0 017.424 2.147l1.414-1.414a10 10 0 00-9.28-2.684l.442 1.95zm7.446 2.169l4.64 4.36 1.37-1.458-4.64-4.36-1.37 1.458zm-17.36 8.36l4.64 4.36 1.37-1.458-4.64-4.36-1.37 1.458zm4.618 4.338a10 10 0 009.28 2.684l-.442-1.95a8 8 0 01-7.424-2.148l-1.414 1.414zm9.28 2.684a10 10 0 007.22-6.417l-1.886-.668A8 8 0 0113.77 19.8l.441 1.951z" fill="#fff"/></svg>