<svg width="22" height="23" fill="none" xmlns="http://www.w3.org/2000/svg"><path d="M11.001 13.721v7.334H3.668a7.334 7.334 0 017.333-7.334zm0-.916a5.499 5.499 0 01-5.5-5.5c0-3.04 2.462-5.5 5.5-5.5 3.04 0 5.5 2.46 5.5 5.5 0 3.038-2.46 5.5-5.5 5.5zm2.38 5.327a3.216 3.216 0 010-1.487l-.91-.526.916-1.587.91.525c.365-.346.806-.6 1.288-.744v-1.05h1.833v1.05c.488.144.928.403 1.288.744l.91-.525.916 1.587-.91.526a3.22 3.22 0 010 1.486l.91.526-.917 1.587-.91-.525c-.364.346-.805.6-1.287.744v1.05h-1.833v-1.05a3.204 3.204 0 01-1.288-.744l-.91.525-.916-1.587.91-.525zm3.12-1.66a.917.917 0 100 1.833.917.917 0 000-1.834z" fill="#7687EE"/></svg>