<svg width="22" height="23" fill="none" xmlns="http://www.w3.org/2000/svg"><g clip-path="url(#clip0_111_28604)"><path fill-rule="evenodd" clip-rule="evenodd" d="M3.233 6.965H.825c-.687 0-.825.33-.825.688 0 .632.825 3.796 3.797 7.978 1.994 2.847 4.8 4.402 7.345 4.402 1.527 0 1.72-.344 1.72-.936v-2.16c0-.687.137-.825.633-.825.357 0 .962.18 2.393 1.555 1.637 1.637 1.898 2.366 2.82 2.366h2.407c.688 0 1.032-.344.826-1.018-.207-.688-.99-1.65-2.023-2.82-.55-.674-1.403-1.376-1.65-1.733-.358-.468-.275-.674 0-1.073 0 0 2.93-4.127 3.232-5.544.152-.509 0-.88-.729-.88h-2.407a1.045 1.045 0 00-1.045.688s-1.238 2.97-2.958 4.91c-.564.564-.825.743-1.128.743-.138 0-.371-.179-.371-.688V7.845c0-.605-.18-.88-.688-.88H8.39c-.385 0-.619.275-.619.55 0 .578.88.715.963 2.338v3.55c0 .784-.138.921-.44.921-.826 0-2.806-2.999-3.99-6.424-.22-.66-.453-.935-1.072-.935z" fill="#7687EE"/></g><defs><clipPath id="clip0_111_28604"><path fill="#fff" transform="translate(0 .963)" d="M0 0h22v22H0z"/></clipPath></defs></svg>